<?xml version="1.0" encoding="utf-8"?>
<!-- Generator: Adobe Illustrator 20.1.0, SVG Export Plug-In . SVG Version: 6.00 Build 0)  -->
<svg version="1.1" id="Warstwa_1" xmlns="http://www.w3.org/2000/svg" xmlns:xlink="http://www.w3.org/1999/xlink" x="0px" y="0px"
	 viewBox="0 0 163 224.9" style="enable-background:new 0 0 163 224.9;" xml:space="preserve">
<style type="text/css">
	.st0{fill-rule:evenodd;clip-rule:evenodd;fill:#ECEEEF;}
	.st1{fill-rule:evenodd;clip-rule:evenodd;fill:#BAC7BA;}
	.st2{fill-rule:evenodd;clip-rule:evenodd;fill:#DBDADA;}
	.st3{fill-rule:evenodd;clip-rule:evenodd;fill:#A4C3A7;}
	.st4{fill-rule:evenodd;clip-rule:evenodd;fill:#8DB28F;}
</style>
<path class="st0" d="M159.6,59.1v31.1c0,10-5.2,15.4-14.6,17.4c-19.9,5-38.5,5-56.5,3.7l0,10.7v13.2c0,3.2,0.2,5.6,2,7.2
	c2.2,2,65.3,56.7,66,57.4c2.2,1.9,3.3,3.7,3.5,6.6l0.8,8.1c-2.1,0.6-4.1,0.6-6,0l0.5-8.1c0.1-1.3-0.5-1.9-1.5-2.7
	c-0.7-0.6-38.2-30.5-58.1-46.2l7.6,13.8c0,0.1,2.6,5,3.1,10.3l0.8,8.1c-2.1,0.6-4.1,0.6-6,0l0.5-8.1c0.1-1.3,0.2-4.2-2.1-7.5
	c-0.4-0.6-8.7-12.6-16.8-24.6c-0.1,0.4,0,0.1-0.2,0.5l-29.6,61.9c-0.8,1.7-0.9,2.6-0.8,4.5l0.5,8.1c-2,0.6-3.9,0.6-6,0l0.7-8
	c0.2-2.6,0.8-3.4,1.8-5.8l24.6-61c0,0-62.8,36.3-63.9,36.9c-1.1,0.7-1.6,1.5-1.5,2.8l0.5,8.1c-2,0.6-3.9,0.6-6,0l0.8-8.1
	c0.3-2.9,1.2-5.1,3.5-6.6c0.8-0.5,58.7-38.5,61.6-40.5c3.2-2.2,5.3-4.3,5.3-8.2l0-23c-0.2-2.8-2.7-4.4-7.3-4.8l-16.5-2.1
	c-13.1-1.8-23.8-12.4-25-26.7L24,60.6c-1.6-11.2-4.2-23.3-7.6-35.5c0-8.1,7.1-13.6,23.2-15.5c30.5-3.7,63,4.3,97.7,23.2l14.5,8.7
	C157.3,45.4,159.9,51.3,159.6,59.1"/>
<path class="st1" d="M159.6,59.1v31.1c0,10-5.2,15.4-14.6,17.4c-19.9,5-38.6,4.9-56.6,3.5c-12.8-1-24.9-7.9-32.4-26.4
	C46.8,62,42.8,48,29.4,39.9C19.6,34,16.4,28.6,16.4,25.1c0-8.1,7.1-13.6,23.2-15.5c30.5-3.7,63,4.3,97.7,23.2l14.5,8.7
	C157.3,45.4,159.9,51.3,159.6,59.1"/>
<path class="st0" d="M88.5,121.9v13.2c0,3.2,0.2,5.6,2,7.2c2.2,2,65.3,56.7,66,57.4c2.2,1.9,3.3,3.7,3.5,6.6l0.8,8.1
	c-2.1,0.6-4.1,0.6-6,0l0.5-8.1c0.1-1.3-0.5-1.9-1.5-2.7l-71.1-56.1l0.6-25.1L88.5,121.9z"/>
<path class="st2" d="M95.8,157.4l7.6,13.8c0,0.1,2.6,5,3.1,10.3l0.8,8.1c-2.1,0.6-4.1,0.6-6,0l0.5-8.1c0.1-1.3,0.2-4.2-2.1-7.5
	c-0.4-0.6-8.7-12.6-16.8-24.6l0.5-1.9L95.8,157.4z"/>
<path class="st2" d="M88.5,111.2c-12.8,0.3-25.1-8-32.5-26.5C46.8,62,42.8,48,29.4,39.9C19.6,34,16.4,28.6,16.4,25.1
	c0-7.4,5.9-12.6,19.2-14.9c-11.2,2.5-16.2,7.5-16.2,14.3c0,3.6,3.2,8.9,12.9,14.8C45.8,47.4,49.9,61.4,59,84.1
	c7.5,18.5,19.2,24.6,32,25.5c6.3,0.5,42.5,2.8,59.9-6.4c4.8-2.5,7.6-7,8.7-11.4c0,0.2,0,0.5-0.1,0.8c-0.2,3.4-1.4,7-3.9,9.4
	c-1.1,1-2.5,2.3-4,3.1c-10.5,5.8-30.7,6.8-40.5,6.7c-4.3,0-9,0-14-0.2C94.4,111.6,91.5,111.2,88.5,111.2"/>
<path class="st3" d="M157.7,57.3v30c0,9.7-5.1,14.9-14.1,16.8c-19.2,4.9-37.3,4.7-54.7,3.4c-12.3-0.9-24.1-7.6-31.3-25.5
	c-8.9-21.9-12.8-35.5-25.7-43.3c-9.4-5.7-12.5-10.9-12.5-14.3c0-7.9,6.8-13.1,22.4-15c29.4-3.5,60.9,4.2,94.3,22.4l14,8.4
	C155.5,44.1,158,49.8,157.7,57.3"/>
<path class="st2" d="M82.9,149.5l0.3-29.3l4.4-0.1v28.3c0,0.9-0.1,1.7-0.2,2.4l-4-3.2L82.9,149.5z"/>
<path class="st0" d="M84.1,122.3L84,141.8c0,2.2,0.2,4.8-1.1,7.7l-29.8,62.4c-0.8,1.7-0.9,2.6-0.8,4.5l0.5,8.1c-2,0.6-3.9,0.6-6,0
	l0.7-8c0.2-2.6,0.8-3.4,1.8-5.8l24.1-59.9c1.1-2.8,1.7-6,1.8-13c0-1-0.1-14.6-0.1-15.8C75.1,120.8,84.1,122.3,84.1,122.3"/>
<path class="st2" d="M88.5,111.2l0,10.7v0c-4.4,0.9-9.6,0.8-14.3,0l0-10.8c-0.2-2.6-2.3-4.1-6.3-4.7
	C73.8,106.8,79.6,110.5,88.5,111.2"/>
<path class="st4" d="M156.2,95.2c-2,4.8-6.4,7.6-12.6,8.9c-19.2,4.9-37.3,4.7-54.7,3.4c-11.5-0.9-22.5-6.7-29.8-22.1
	c10-1.1,20.9-1.6,32.3-1.6C96.9,83.9,160.8,84.4,156.2,95.2"/>
</svg>
