<?xml version="1.0" encoding="utf-8"?>
<!-- Generator: Adobe Illustrator 20.1.0, SVG Export Plug-In . SVG Version: 6.00 Build 0)  -->
<svg version="1.1" id="Warstwa_1" xmlns="http://www.w3.org/2000/svg" xmlns:xlink="http://www.w3.org/1999/xlink" x="0px" y="0px"
	 viewBox="0 0 180 197.7" style="enable-background:new 0 0 180 197.7;" xml:space="preserve">
<style type="text/css">
	.st0{fill-rule:evenodd;clip-rule:evenodd;fill:#BFBEBE;}
	.st1{fill-rule:evenodd;clip-rule:evenodd;fill:#C7B27A;}
	.st2{fill-rule:evenodd;clip-rule:evenodd;fill:#AE985F;}
	.st3{fill-rule:evenodd;clip-rule:evenodd;fill:#ECEEEF;}
	.st4{fill-rule:evenodd;clip-rule:evenodd;fill:#C6C9CA;}
	.st5{fill-rule:evenodd;clip-rule:evenodd;fill:#DBD700;}
	.st6{fill-rule:evenodd;clip-rule:evenodd;fill:#FCEA02;}
	.st7{fill-rule:evenodd;clip-rule:evenodd;fill:#DBDADA;}
	.st8{fill-rule:evenodd;clip-rule:evenodd;fill:#F8EED0;}
	.st9{fill-rule:evenodd;clip-rule:evenodd;fill:#D9C695;}
	.st10{fill-rule:evenodd;clip-rule:evenodd;fill:#EDDBB2;}
	.st11{fill-rule:evenodd;clip-rule:evenodd;fill:#F2ACCD;}
	.st12{fill-rule:evenodd;clip-rule:evenodd;fill:#F9D3E6;}
	.st13{fill-rule:evenodd;clip-rule:evenodd;fill:#A4C3A7;}
	.st14{fill:none;stroke:#D9C695;stroke-width:6.7739;stroke-linecap:round;stroke-linejoin:round;stroke-miterlimit:22.9256;}
	.st15{fill:none;stroke:#AE985F;stroke-width:0.1394;stroke-miterlimit:22.9256;}
	.st16{fill-rule:evenodd;clip-rule:evenodd;fill:#8DB28F;}
	.st17{fill-rule:evenodd;clip-rule:evenodd;fill:#E5E4E6;}
</style>
<polygon class="st0" points="29.7,92.7 60.9,110.3 96.2,100.5 "/>
<path class="st1" d="M109.5,0.9l-1.2,1.1c-1.3,1.1-1.1,1.9-1.2,2.7l-4.4,58.3l1,2.4c0.4,0.9,0.7,1.4,1.7,1.5L111.9,0
	C111.1,0,110.2,0.2,109.5,0.9"/>
<path class="st2" d="M114.1,1.3l1,1.3c1,1.4,0.8,2.1,0.7,2.8l-7,58.1l-1.4,2.1c-0.5,0.8-1,1.2-1.9,1.1L111.9,0
	C112.8,0.1,113.6,0.6,114.1,1.3"/>
<polygon class="st3" points="37.9,176.9 59.8,135 96.2,190.8 "/>
<polygon class="st4" points="96.2,100.5 147.3,92 173.8,69.4 124.8,77.3 "/>
<path class="st5" d="M49.8,68.2c-3.9-3.1-7.8-6.3-11.9-9.3c-6.5,2.2-9.7,6.4-9.6,13.9l4.2,1.3L49.8,68.2z"/>
<path class="st6" d="M49.8,68.2c-3.1-2.5-6.3-5.1-9.6-7.5c-6,2.2-9,6.2-9,13.1l1.3,0.4L49.8,68.2z"/>
<polygon class="st7" points="96.2,100.5 96.2,190.8 139,177.1 147.3,92 "/>
<path class="st8" d="M110.7,64.9c-3-3-3.7-4.4-8.1-6.2c-2.4-1-5.1-1.5-7.9-1.5c-2.7,0.1-5.3,0.7-7.7,1.7c-2.4,1.1-4.6,2.6-6.4,4.5
	l0,0c-2,1.9-4.3,3.5-6.9,4.6c-2.5,1-5.2,1.6-8,1.7c-1.9,0-3.7-0.2-5.4-0.6c-1.8-0.4-3.5-1.1-5.1-1.9c-5.1-2.4-9.6,0.9-10.6,2.6
	l7.3,3.8c2.1,1.1,4.4,2,6.8,2.5c2.4,0.6,4.8,0.8,7.2,0.8c3.7-0.1,7.3-0.8,10.7-2.3c3.5-1.5,6.8-3.5,9.4-6.3l0,0
	c1.1-1.2,2.5-2.2,4-2.8c1.5-0.7,3.2-1,4.9-1.1c1.7,0,3.5,0.3,5.1,0.9c1.4,0.6,2.3,1.2,3.3,2.1C104.1,68.4,110.7,64.9,110.7,64.9"/>
<path class="st9" d="M102.2,95.4c-1.2-0.4-2.4-0.7-3.7-0.9c-2.9-0.4-5.8-0.2-8.6,0.5l0,0c-0.3,0.1-0.7,0.2-1,0.3
	c-0.3,0,7.3,5.3,7.3,5.3L102.2,95.4z"/>
<path class="st9" d="M92.2,72.1c-0.2,0.3-0.4,0.3-1.3,1.3c2.9-0.3,6.9-0.4,9.9,0c1.7,0.2,2.8,0.5,4.4,0.9l3.1-1.4c2.2-1,4.6-1.6,7-2
	c2.4-0.4,4.8-0.4,7.2-0.2c3.7,0.3,7.2,1.4,10.5,3.1c0.9,0.5,1.9,1,2.8,1.6l9.6-1.6c-2.6-2.6-5.7-4.8-9-6.5
	c-4.1-2.1-8.6-3.4-13.2-3.8c-3-0.3-6.1-0.2-9.1,0.3c-3,0.5-5.9,1.3-8.7,2.5L92.2,72.1z"/>
<path class="st10" d="M135.8,75.4l-12.2,2.8c-0.6-0.1-1.2-0.2-1.8-0.2c-1.9-0.2-3.7-0.1-5.4,0.2c-0.4,0.1-0.8,0.1-1.2,0.2l-2.6,1.2
	l-6.2-2.8l-1.2-2.5l3.1-1.4c2.2-1,4.6-1.6,7-2c2.4-0.4,4.8-0.4,7.2-0.2c3.7,0.3,7.2,1.4,10.5,3.1C134,74.3,134.9,74.9,135.8,75.4"/>
<path class="st8" d="M123.6,78.3l-4.4,3.6l-4.4-3.2l0.4-0.2c0.4-0.1,0.8-0.2,1.2-0.2c1.8-0.3,3.6-0.3,5.4-0.2
	C122.4,78.1,123,78.2,123.6,78.3"/>
<path class="st9" d="M119.2,81.8c-1.6-1.3-3.2-2.5-5-3.6c-4.1-2.5-8.7-4.1-13.5-4.8c-3.3-0.5-6.6-0.5-9.9,0l-10,7.1
	c0.9,0.4,1.9,0.7,2.8,0.8c1.5,0.3,3.2,0.2,4.7-0.1c3.7-0.9,7.5-1.1,11.3-0.6c3.8,0.5,7.5,1.9,10.8,3.8c1,0.6,2,1.3,3,2L119.2,81.8z"
	/>
<path class="st8" d="M80.8,80.4c0.9,0.4,1.9,0.8,2.8,0.9c1.5,0.3,3.2,0.2,4.7-0.1c3.7-0.9,7.5-1.1,11.3-0.6
	c3.8,0.5,7.5,1.9,10.8,3.8c1,0.6,2,1.3,3,2l-5.8,4.7c-0.3-0.2-0.6-0.4-0.9-0.6c-2.6-1.5-5.3-2.5-8.1-2.9c-2.9-0.4-5.8-0.2-8.6,0.5
	l0,0c-2.5,0.5-5,0.6-7.5,0.2c-2.4-0.4-4.8-1.2-7.1-2.6c-1.3-0.8-2.4-1.6-3.4-2.6c1.6-0.3,2.8-0.6,4.4-1.2c1-0.3,2-0.7,2.9-1.1
	C79.9,80.9,80.4,80.7,80.8,80.4"/>
<path class="st10" d="M102.2,95.4l5.4-4.1c-0.3-0.2-0.6-0.4-0.9-0.6c-2.6-1.5-5.3-2.5-8.1-2.9c-2.9-0.4-5.8-0.2-8.6,0.5l0,0
	c-2.5,0.5-5,0.6-7.5,0.2c-1.9-0.3-3.8-0.9-5.6-1.8l11.9,8.8c0.3-0.1,0.8-0.4,1.1-0.5l0,0c2.8-0.7,5.7-0.9,8.6-0.5
	C99.8,94.7,101,95,102.2,95.4"/>
<path class="st10" d="M90.1,74.1l2.1-1.8l11-4.9c-4.9-4.1-12.6-3.8-17.1,0.9l0,0c-2.6,2.8-5.9,4.9-9.4,6.3c-3.4,1.4-7,2.2-10.7,2.3
	c-2.4,0-4.8-0.2-7.2-0.8c-2.4-0.6-4.6-1.4-6.8-2.5l-6.4-3.4c-3.6-2-9.4,1.3-10.4,3c0.4,0.2,0.7,0.2,1.1,0.3L63,77.5l0.5,0.3l0.5,0.1
	l8,5.6c1.5-0.3,3.1-0.7,4.6-1.1c1-0.3,2-0.7,2.9-1.1c3.9-1.7,7.7-3.9,10.7-6.9L90.1,74.1z"/>
<path class="st11" d="M56,59c1.8,3.1,4.2,5,5.2,4.4c1-0.6,0.4-3.6-1.5-6.7c-1.8-3.1-4.2-5-5.2-4.4C53.5,52.9,54.1,55.9,56,59"/>
<path class="st11" d="M54.4,62.8c3.3,1.4,6.3,1.7,6.8,0.6C60.1,64,57.8,62,56,59l-0.2-0.3c-3.1-1.3-6-1.5-6.5-0.4
	C48.8,59.3,51.1,61.4,54.4,62.8"/>
<path class="st11" d="M86.6,59.5c-2.2-2.4-5.5-2.9-7.5-1.1c-2,1.8-1.8,5.2,0.4,7.6c2.2,2.4,5.5,2.9,7.5,1.1
	C88.9,65.3,88.7,61.9,86.6,59.5"/>
<path class="st12" d="M62.6,61.8c-2.2-2.3-5.8,0.2-4.2,3.1c2.8,6.1,9.1,10.1,16.1,9.5c5.4-0.4,9.9-3.4,12.6-7.6
	c-0.1,0.1-0.1,0.2-0.2,0.2c-2,1.8-5.3,1.3-7.5-1.1c-1.6-1.8-2.1-4.1-1.5-5.9c-1.8,2.4-4.5,4-7.7,4.3C67.4,64.5,64.7,63.6,62.6,61.8"
	/>
<polygon class="st4" points="59.3,134.2 96.2,190.8 94.5,190.4 58.4,135.4 "/>
<polygon class="st4" points="29.7,92.7 96.2,100.5 63.9,77.1 4.2,68.7 "/>
<polygon class="st4" points="147.3,92 173.8,69.4 124.2,76 96.2,100.5 "/>
<path class="st13" d="M94.6,89.6c2.6,1.3,5.1,1.5,7.7,0.7c-0.2-2,0.7-4.4,2.8-5.4c-0.6-0.8-1.4-1.6-2.4-2.1c-3-1.7-6.6-1.4-9.1,0.6
	C95.1,85.2,95.3,87.7,94.6,89.6"/>
<path class="st14" d="M98.2,97.7c10.3,2,11.6,11.3,8.8,23.1"/>
<path class="st1" d="M126.1,14.4l-1.5,0.7c-1.5,0.8-1.6,1.5-1.8,2.3l-19,55.3l0.4,2.5c0.1,0.9,0.4,1.5,1.2,1.8l23.2-62.9
	C127.9,14,126.9,14,126.1,14.4"/>
<path class="st2" d="M130.4,16l0.6,1.5c0.7,1.6,0.2,2.2-0.1,2.9l-21.4,54.4l-1.9,1.7c-0.7,0.6-1.3,0.9-2.1,0.6l23.2-62.9
	C129.4,14.5,130.1,15.2,130.4,16z"/>
<path class="st15" d="M130.4,16l0.6,1.5c0.7,1.6,0.2,2.2-0.1,2.9l-21.4,54.4l-1.9,1.7c-0.7,0.6-1.3,0.9-2.1,0.6l23.2-62.9
	C129.4,14.5,130.1,15.2,130.4,16z"/>
<path class="st16" d="M94.6,89.6c2.6,1.3,5.1,1.5,7.7,0.7c-0.3-2.7,1.6-6.2,5.5-5.9c2.5,0.1,4.6-1.6,5-4.2c0.4-2.6-1.5-5.2-4.2-5.5
	c-0.5-0.1-1-0.1-1.5,0c0.4-1.2-0.1-2.5-1.3-3.2c-1.1-0.6-2.4-0.5-3.3,0.3c-0.2-1-0.8-1.9-1.8-2.5c-1.8-1-4-0.5-5.1,1.2
	c-0.3-0.2-0.7-0.3-1.1-0.4c-1.6-0.2-3.1,0.9-3.3,2.5c-0.1,0.8,0.1,1.5,0.5,2.1c-0.2,0-0.3-0.1-0.5-0.1c-1.9-0.3-3.6,1-3.9,2.9
	c-0.3,1.9,1.2,3.7,2.9,3.9C94.5,82.4,95.7,86.8,94.6,89.6"/>
<polygon class="st17" points="29.7,92.7 52.7,100.2 68.8,113.5 37.9,176.9 "/>
<polygon class="st4" points="37.9,176.9 68.8,113.5 68.8,116.5 39.4,177.3 "/>
<polygon class="st3" points="96.2,100.5 66.4,102.5 50.7,121 96.2,190.8 "/>
</svg>
