<?xml version="1.0" encoding="utf-8"?>
<!-- Generator: Adobe Illustrator 20.1.0, SVG Export Plug-In . SVG Version: 6.00 Build 0)  -->
<svg version="1.1" id="Warstwa_1" xmlns="http://www.w3.org/2000/svg" xmlns:xlink="http://www.w3.org/1999/xlink" x="0px" y="0px"
	 viewBox="0 0 194.2 186.2" style="enable-background:new 0 0 194.2 186.2;" xml:space="preserve">
<style type="text/css">
	.st0{fill:#5E3916;}
	.st1{fill:#C3996E;}
	.st2{fill:#FFFFFF;stroke:#000000;stroke-width:2;stroke-linecap:round;stroke-miterlimit:10;}
	.st3{fill:#651A4F;}
</style>
<path class="st0" d="M25.6,135.9c-0.9,0-1.6-0.6-1.9-1.4c-0.3-1.1,0.3-2.2,1.3-2.5l64.7-19.4c1.1-0.3,2.2,0.3,2.5,1.3
	c0.3,1.1-0.3,2.2-1.3,2.5l-64.7,19.4C26,135.8,25.8,135.9,25.6,135.9z"/>
<path class="st0" d="M25.2,137.4c-0.2,0-0.4,0-0.6-0.1c-1.1-0.3-1.7-1.4-1.3-2.5l18.8-63.3c0.3-1.1,1.4-1.7,2.5-1.3
	c1.1,0.3,1.7,1.4,1.3,2.5L27.1,136C26.8,136.9,26,137.4,25.2,137.4z"/>
<path class="st1" d="M28.1,136.9c-0.1,0-0.3,0-0.4-0.1c-0.8-0.2-1.2-1.1-1-1.9l16.6-57.3c0.2-0.8,1.1-1.3,1.9-1
	c0.8,0.2,1.2,1.1,1,1.9l-16.6,57.3C29.4,136.5,28.8,136.9,28.1,136.9z"/>
<path class="st1" d="M107.2,78.3c-0.2,0-0.3,0-0.5-0.1c-0.8-0.3-1.2-1.1-0.9-1.9l5.5-15.1c0.3-0.8,1.1-1.2,1.9-0.9
	c0.8,0.3,1.2,1.1,0.9,1.9l-5.5,15.1C108.4,77.9,107.8,78.3,107.2,78.3z"/>
<path class="st0" d="M104.6,77.4c-0.2,0-0.5,0-0.7-0.1c-1-0.4-1.5-1.6-1.1-2.6l6.1-15.8c0.4-1,1.6-1.5,2.6-1.1
	c1,0.4,1.5,1.6,1.1,2.6l-6.1,15.8C106.1,77,105.4,77.4,104.6,77.4z"/>
<path class="st1" d="M132.1,95.2c-0.5,0-0.9-0.2-1.2-0.6L67.1,4.9c-0.5-0.7-0.3-1.6,0.4-2.1c0.7-0.5,1.6-0.3,2.1,0.4l63.8,89.7
	c0.5,0.7,0.3,1.6-0.4,2.1C132.7,95.1,132.4,95.2,132.1,95.2z"/>
<path class="st2" d="M111.5,59.7"/>
<path class="st0" d="M127.2,95.7c-0.6,0-1.2-0.3-1.6-0.9L65.2,8.5c-0.6-0.9-0.4-2.1,0.5-2.8c0.9-0.6,2.1-0.4,2.8,0.5l60.4,86.3
	c0.6,0.9,0.4,2.1-0.5,2.8C128,95.6,127.6,95.7,127.2,95.7z"/>
<path class="st3" d="M66.2,7.5l-48.3,5.2l2.5,12.5l45,71.9c0,0,12.8,14.7,24.9,17.4c12.3,2.7,33.6,8,44.9,3.5
	c11.3-4.5,52.8-15.9,52.8-15.9s-46.6-8.2-57.1-10.1c-8.9-1.6-33.7-18.5-45.7-41.2C78.5,38.2,66.2,7.5,66.2,7.5z"/>
<path class="st1" d="M8,13.4c-1.5,0-2.8-1.1-3-2.7c-0.2-1.6,1-3.1,2.7-3.3L67,1.5c1.6-0.2,3.1,1,3.3,2.7c0.2,1.6-1,3.1-2.7,3.3
	L8.3,13.4C8.2,13.4,8.1,13.4,8,13.4z"/>
<path class="st1" d="M174.3,154.5c-9.7-13.9-24.6-34.9-26-36.3l1-1l-0.5-1.6c1.4-0.5,1.6-0.5,27.9,37.1L174.3,154.5z"/>
<path class="st0" d="M171.8,156.3c-0.6,0-1.2-0.3-1.6-0.8l-26.1-36.1c-0.6-0.9-0.4-2.1,0.5-2.8c0.9-0.6,2.1-0.4,2.8,0.5l26.1,36.1
	c0.6,0.9,0.4,2.1-0.5,2.8C172.6,156.2,172.2,156.3,171.8,156.3z"/>
<path class="st0" d="M25.1,140.8c-1.4,0-2.7-1-2.9-2.5c-0.3-1.6,0.8-3.2,2.5-3.4l107-17.4c1.6-0.3,3.2,0.8,3.4,2.5
	c0.3,1.6-0.8,3.2-2.5,3.4l-107,17.4C25.5,140.8,25.3,140.8,25.1,140.8z"/>
<path class="st1" d="M136.1,122c-1.3,0-2.4-0.8-2.8-2.1c-0.5-1.6,0.4-3.3,1.9-3.8l53.5-16.9c1.6-0.5,3.3,0.4,3.8,1.9
	c0.5,1.6-0.4,3.3-1.9,3.8L137,121.8C136.7,121.9,136.4,122,136.1,122z"/>
<path class="st1" d="M112.7,184.2c-1.2,0-2.3-0.7-2.8-1.8c-0.6-1.5,0.1-3.3,1.6-3.9l62.8-26.3c1.5-0.6,3.3,0.1,3.9,1.6
	c0.6,1.5-0.1,3.3-1.6,3.9l-62.8,26.3C113.5,184.1,113.1,184.2,112.7,184.2z"/>
<path class="st1" d="M115.4,182.4c-0.7,0-1.3-0.3-1.7-0.9L9.5,13.7c-0.6-0.9-0.3-2.2,0.6-2.7c0.9-0.6,2.2-0.3,2.7,0.6L117,179.4
	c0.6,0.9,0.3,2.2-0.6,2.7C116.1,182.3,115.7,182.4,115.4,182.4z"/>
<path class="st0" d="M110.9,184.2c-1,0-2-0.5-2.5-1.4L2.4,13.5C1.5,12.1,2,10.3,3.4,9.4c1.4-0.9,3.2-0.4,4.1,0.9l106,169.3
	c0.9,1.4,0.5,3.2-0.9,4.1C112,184,111.5,184.2,110.9,184.2z"/>
</svg>
