<?xml version="1.0" encoding="utf-8"?>
<!-- Generator: Adobe Illustrator 20.1.0, SVG Export Plug-In . SVG Version: 6.00 Build 0)  -->
<svg version="1.1" id="Warstwa_1" xmlns="http://www.w3.org/2000/svg" xmlns:xlink="http://www.w3.org/1999/xlink" x="0px" y="0px"
	 viewBox="0 0 446.8 422.2" style="enable-background:new 0 0 446.8 422.2;" xml:space="preserve">
<style type="text/css">
	.st0{fill:none;stroke:#000000;stroke-width:0.989;stroke-linecap:round;stroke-linejoin:round;stroke-miterlimit:22.9256;}
	.st1{fill:none;stroke:#000000;stroke-width:1.0188;stroke-linecap:round;stroke-linejoin:round;stroke-miterlimit:22.9256;}
	.st2{fill:none;stroke:#000000;stroke-width:0.8851;stroke-linecap:round;stroke-linejoin:round;stroke-miterlimit:22.9256;}
	.st3{fill:none;stroke:#000000;stroke-width:0.9986;stroke-linecap:round;stroke-linejoin:round;stroke-miterlimit:22.9256;}
	.st4{fill:none;stroke:#000000;stroke-width:0.7008;stroke-linecap:round;stroke-linejoin:round;stroke-miterlimit:22.9256;}
	.st5{fill:none;stroke:#000000;stroke-width:0.7503;stroke-linecap:round;stroke-linejoin:round;stroke-miterlimit:22.9256;}
	.st6{fill:none;stroke:#000000;stroke-width:0.2472;stroke-linecap:round;stroke-linejoin:round;stroke-miterlimit:22.9256;}
	.st7{fill:none;stroke:#000000;stroke-width:0.2562;stroke-linecap:round;stroke-linejoin:round;stroke-miterlimit:22.9256;}
	.st8{fill:none;stroke:#000000;stroke-width:1.1693;stroke-linecap:round;stroke-linejoin:round;stroke-miterlimit:22.9256;}
	.st9{fill:none;stroke:#000000;stroke-width:1.1546;stroke-linecap:round;stroke-linejoin:round;stroke-miterlimit:22.9256;}
	.st10{fill:none;stroke:#000000;stroke-width:0.2496;stroke-linecap:round;stroke-linejoin:round;stroke-miterlimit:22.9256;}
	.st11{fill:none;stroke:#000000;stroke-width:0.2505;stroke-linecap:round;stroke-linejoin:round;stroke-miterlimit:22.9256;}
	
		.st12{fill:none;stroke:#000000;stroke-width:0.4945;stroke-linecap:round;stroke-linejoin:round;stroke-miterlimit:22.9256;stroke-dasharray:0.989,1.4835;}
	
		.st13{fill:none;stroke:#000000;stroke-width:0.5371;stroke-linecap:round;stroke-linejoin:round;stroke-miterlimit:22.9256;stroke-dasharray:1.0742,1.6113;}
	
		.st14{fill:none;stroke:#000000;stroke-width:0.5343;stroke-linecap:round;stroke-linejoin:round;stroke-miterlimit:22.9256;stroke-dasharray:1.0686,1.6029;}
	
		.st15{fill:none;stroke:#000000;stroke-width:0.689;stroke-linecap:round;stroke-linejoin:round;stroke-miterlimit:22.9256;stroke-dasharray:1.3779,2.0669;}
	
		.st16{fill:none;stroke:#000000;stroke-width:0.5681;stroke-linecap:round;stroke-linejoin:round;stroke-miterlimit:22.9256;stroke-dasharray:1.1361,1.7042;}
	.st17{fill:none;stroke:#000000;stroke-width:0.5921;stroke-linecap:round;stroke-linejoin:round;stroke-miterlimit:22.9256;}
	.st18{fill:none;stroke:#000000;stroke-width:0.2467;stroke-linecap:round;stroke-linejoin:round;stroke-miterlimit:22.9256;}
	.st19{fill:none;stroke:#000000;stroke-width:0.9377;stroke-linecap:round;stroke-linejoin:round;stroke-miterlimit:22.9256;}
	.st20{fill:none;stroke:#000000;stroke-width:0.2449;stroke-linecap:round;stroke-linejoin:round;stroke-miterlimit:22.9256;}
	.st21{fill:none;stroke:#000000;stroke-width:0.5876;stroke-linecap:round;stroke-linejoin:round;stroke-miterlimit:22.9256;}
	.st22{fill:none;stroke:#000000;stroke-width:0.2776;stroke-linecap:round;stroke-linejoin:round;stroke-miterlimit:22.9256;}
	.st23{fill:none;stroke:#000000;stroke-width:0.4673;stroke-linecap:round;stroke-linejoin:round;stroke-miterlimit:22.9256;}
	.st24{fill:none;stroke:#000000;stroke-width:0.2208;stroke-linecap:round;stroke-linejoin:round;stroke-miterlimit:22.9256;}
	.st25{fill:none;stroke:#000000;stroke-width:0.2428;stroke-linecap:round;stroke-linejoin:round;stroke-miterlimit:22.9256;}
	.st26{fill:none;stroke:#000000;stroke-width:0.5828;stroke-linecap:round;stroke-linejoin:round;stroke-miterlimit:22.9256;}
	.st27{fill:none;stroke:#000000;stroke-width:0.2797;stroke-linecap:round;stroke-linejoin:round;stroke-miterlimit:22.9256;}
	.st28{fill:none;stroke:#000000;stroke-width:0.6224;stroke-linecap:round;stroke-linejoin:round;stroke-miterlimit:22.9256;}
	.st29{fill:none;stroke:#000000;stroke-width:0.2594;stroke-linecap:round;stroke-linejoin:round;stroke-miterlimit:22.9256;}
	.st30{fill:#9C9509;}
	.st31{fill:#584A97;}
	.st32{fill:#B0DEF7;}
	.st33{fill:#B0AF66;}
	.st34{fill:#4D4D4D;}
	.st35{fill:#F7E1B3;}
	.st36{fill:none;stroke:#000000;stroke-width:0.5933;stroke-linecap:round;stroke-linejoin:round;stroke-miterlimit:22.9256;}
	.st37{fill:#8DA98F;}
	.st38{fill:none;stroke:#000000;stroke-width:0.6056;stroke-linecap:round;stroke-linejoin:round;stroke-miterlimit:22.9256;}
	.st39{fill:none;stroke:#000000;stroke-width:0.2524;stroke-linecap:round;stroke-linejoin:round;stroke-miterlimit:22.9256;}
	.st40{fill:#F3AACB;}
	.st41{fill:#B1AF66;}
	.st42{fill:#F8E1B3;}
	.st43{fill:#55ADC9;}
	.st44{fill:#9C960A;}
	.st45{fill:#809A85;}
	.st46{fill:#F8E1B3;stroke:#000000;stroke-width:0.2803;stroke-miterlimit:22.9256;}
	.st47{fill:#C3C00F;}
	.st48{fill:none;stroke:#000000;stroke-width:0.2803;stroke-miterlimit:22.9256;}
	.st49{fill:none;stroke:#000000;stroke-width:0.6857;stroke-linecap:round;stroke-linejoin:round;stroke-miterlimit:22.9256;}
	.st50{fill:#FFFFFF;stroke:#000000;stroke-width:0.3429;stroke-miterlimit:10;}
	.st51{fill:none;stroke:#000000;stroke-width:0.2472;stroke-miterlimit:10;}
	.st52{fill:none;stroke:#000000;stroke-width:0.6491;stroke-miterlimit:10;}
	.st53{fill:none;stroke:#000000;stroke-width:0.6332;stroke-miterlimit:10;}
	.st54{fill:none;stroke:#000000;stroke-width:0.4945;stroke-linecap:round;stroke-linejoin:round;stroke-miterlimit:22.9256;}
	.st55{fill:none;stroke:#000000;stroke-width:0.4868;stroke-linecap:round;stroke-linejoin:round;stroke-miterlimit:22.9256;}
	.st56{fill:none;stroke:#000000;stroke-width:0.4625;stroke-linecap:round;stroke-linejoin:round;stroke-miterlimit:22.9256;}
	.st57{fill:none;stroke:#000000;stroke-width:0.4945;stroke-linecap:round;stroke-miterlimit:10;}
	.st58{fill:none;stroke:#000000;stroke-width:0.1849;stroke-linecap:round;stroke-linejoin:round;stroke-miterlimit:22.9256;}
	.st59{fill:none;stroke:#000000;stroke-width:0.1782;stroke-linecap:round;stroke-linejoin:round;stroke-miterlimit:22.9256;}
	.st60{fill:none;stroke:#000000;stroke-width:0.5637;stroke-linecap:round;stroke-linejoin:round;stroke-miterlimit:22.9256;}
	.st61{fill:none;stroke:#000000;stroke-width:0.2351;stroke-linecap:round;stroke-linejoin:round;stroke-miterlimit:22.9256;}
	.st62{fill:none;stroke:#000000;stroke-width:0.4839;stroke-linecap:round;stroke-linejoin:round;stroke-miterlimit:22.9256;}
	.st63{fill:none;stroke:#000000;stroke-width:0.2016;stroke-linecap:round;stroke-linejoin:round;stroke-miterlimit:22.9256;}
	.st64{fill:none;stroke:#000000;stroke-width:0.7671;stroke-linecap:round;stroke-linejoin:round;stroke-miterlimit:22.9256;}
	.st65{fill:none;stroke:#000000;stroke-width:0.4601;stroke-linecap:round;stroke-linejoin:round;stroke-miterlimit:22.9256;}
	.st66{fill:none;stroke:#000000;stroke-width:0.4603;stroke-linecap:round;stroke-linejoin:round;stroke-miterlimit:22.9256;}
</style>
<line class="st0" x1="112.5" y1="114.9" x2="112.5" y2="79.9"/>
<line class="st0" x1="72.4" y1="132.4" x2="72.3" y2="103.2"/>
<line class="st0" x1="236.4" y1="66.6" x2="214.1" y2="53.5"/>
<line class="st0" x1="300.3" y1="105" x2="264" y2="83.3"/>
<line class="st0" x1="361.5" y1="141.2" x2="334.4" y2="125.3"/>
<path class="st0" d="M113.3,114.9l5.2-3.1l2.9-1.7"/>
<line class="st0" x1="413.2" y1="120.2" x2="413.2" y2="165.8"/>
<line class="st0" x1="154.5" y1="195.1" x2="154.5" y2="240.7"/>
<line class="st0" x1="12.9" y1="119.5" x2="12.9" y2="165.2"/>
<line class="st1" x1="32.2" y1="255.8" x2="32.2" y2="303.7"/>
<line class="st2" x1="282.3" y1="184.8" x2="282.3" y2="219.7"/>
<line class="st0" x1="294.4" y1="249.6" x2="294.4" y2="274.1"/>
<line class="st0" x1="425.5" y1="264.7" x2="425.5" y2="310.4"/>
<path class="st0" d="M412.7,166"/>
<line class="st0" x1="294.2" y1="185.8" x2="413" y2="119.7"/>
<line class="st0" x1="335.5" y1="209.9" x2="413.2" y2="166.8"/>
<line class="st0" x1="282.5" y1="184.6" x2="401.2" y2="119.7"/>
<line class="st0" x1="87.4" y1="278.7" x2="154.5" y2="240.7"/>
<line class="st0" x1="425.8" y1="264.2" x2="294.2" y2="185.8"/>
<line class="st0" x1="412.8" y1="264" x2="282.3" y2="185"/>
<line class="st0" x1="384.4" y1="280.6" x2="282.2" y2="219.5"/>
<line class="st0" x1="375.4" y1="285.1" x2="305.6" y2="243.7"/>
<path class="st0" d="M309.9,253.6"/>
<line class="st3" x1="236.4" y1="419.4" x2="32.2" y2="303.7"/>
<line class="st0" x1="112.2" y1="79.8" x2="72" y2="103.1"/>
<line class="st0" x1="214.1" y1="53.5" x2="214.1" y2="9.2"/>
<line class="st4" x1="118.7" y1="57.8" x2="72.8" y2="84.3"/>
<line class="st0" x1="107.1" y1="111.7" x2="112.7" y2="114.9"/>
<line class="st0" x1="107.1" y1="83.1" x2="107.1" y2="111.7"/>
<path class="st0" d="M121.4,110.1l92.7-56.6"/>
<path class="st5" d="M153.7,60.7"/>
<g>
	<line class="st0" x1="145.2" y1="80.9" x2="145.2" y2="63.7"/>
	<line class="st0" x1="199.5" y1="49.2" x2="199.5" y2="32.1"/>
	<line class="st0" x1="142.3" y1="79.6" x2="145.1" y2="81.3"/>
	<line class="st0" x1="142.2" y1="62.3" x2="145" y2="64"/>
	<line class="st0" x1="196.5" y1="30.3" x2="199.3" y2="32"/>
	<path class="st0" d="M145.3,63.8L199,32.3"/>
	<line class="st0" x1="142.1" y1="79.5" x2="142.1" y2="62.3"/>
	<path class="st0" d="M142.6,62l53.7-31.5"/>
	<path class="st0" d="M145.2,81.1l53.7-31.5"/>
	<line class="st6" x1="146.9" y1="78.2" x2="146.9" y2="65.2"/>
	<line class="st6" x1="197.7" y1="48.3" x2="197.7" y2="35.3"/>
	<path class="st6" d="M146.9,78.2l50.8-29.7"/>
	<path class="st7" d="M147,64.8L197.7,35"/>
</g>
<g>
	<line class="st8" x1="87.2" y1="272.1" x2="87.2" y2="244.7"/>
	<line class="st9" x1="141.5" y1="240.4" x2="141.5" y2="213.5"/>
	<line class="st0" x1="84.3" y1="270.7" x2="87.1" y2="272.4"/>
	<line class="st0" x1="84.2" y1="242.8" x2="87" y2="244.5"/>
	<line class="st0" x1="138.5" y1="211.3" x2="141.3" y2="213"/>
	<path class="st0" d="M87.3,244.2l53.7-31"/>
	<line class="st0" x1="84.2" y1="270.6" x2="84.2" y2="243.3"/>
	<path class="st0" d="M84.6,242.4l53.7-31"/>
	<path class="st0" d="M87.8,271.8l53.7-31"/>
	<line class="st10" x1="89" y1="266.8" x2="89" y2="245.5"/>
	<line class="st10" x1="129.8" y1="243.2" x2="129.8" y2="221.9"/>
	<line class="st10" x1="134.7" y1="240.3" x2="134.7" y2="219"/>
	<line class="st10" x1="124.8" y1="246.1" x2="124.8" y2="224.8"/>
	<line class="st10" x1="119.8" y1="248.9" x2="119.8" y2="227.6"/>
	<line class="st11" x1="139.7" y1="237.4" x2="139.7" y2="215.9"/>
	<path class="st6" d="M89.1,266.7l50.5-29.2"/>
	<path class="st6" d="M89.1,256.6l50.5-29.2"/>
	<path class="st7" d="M89,245.3l50.7-29.3"/>
</g>
<path class="st0" d="M59.8,140.2l12.6-7.8"/>
<path class="st0" d="M397.5,119.2"/>
<line class="st0" x1="214.1" y1="2.7" x2="412.5" y2="119.4"/>
<line class="st0" x1="214" y1="9.6" x2="401.2" y2="119.7"/>
<polyline class="st0" points="12.6,119.2 16.8,116.8 214.1,2.7 "/>
<line class="st0" x1="214.1" y1="9.2" x2="24.1" y2="118.6"/>
<line class="st12" x1="44.7" y1="304" x2="236.4" y2="412.6"/>
<path class="st12" d="M309.3,221.3"/>
<line class="st12" x1="19.7" y1="162.5" x2="106.9" y2="213.9"/>
<path class="st12" d="M51.8,208.7"/>
<polyline class="st0" points="425.7,264.3 237,371.4 164.5,329.8 163.1,329 163.1,329 32.1,256 "/>
<polyline class="st0" points="412.8,264 237,363.5 164.5,321.8 163.1,321 163.1,321 45.7,255.7 "/>
<path class="st0" d="M426.6,265.3"/>
<path class="st0" d="M32.1,256"/>
<path class="st0" d="M416.7,264.3"/>
<path class="st13" d="M86.9,233.8"/>
<path class="st13" d="M91.7,185.2"/>
<path class="st13" d="M319.7,252.9"/>
<path class="st13" d="M293.2,186.1"/>
<line class="st14" x1="414.4" y1="264.9" x2="414.3" y2="310.9"/>
<line class="st0" x1="236.8" y1="371.7" x2="236.8" y2="417.4"/>
<line class="st12" x1="52.9" y1="143.6" x2="20.2" y2="161.6"/>
<path class="st12" d="M321.2,267.1"/>
<path class="st15" d="M148.9,247.2"/>
<line class="st12" x1="320.6" y1="364" x2="416.1" y2="310.2"/>
<path class="st12" d="M321.1,253.3"/>
<line class="st0" x1="326.2" y1="367" x2="326.2" y2="332"/>
<line class="st0" x1="285.6" y1="390.4" x2="285.6" y2="355.4"/>
<line class="st0" x1="326.2" y1="332" x2="285.6" y2="355.4"/>
<line class="st0" x1="425" y1="311.3" x2="326.2" y2="367"/>
<line class="st12" x1="238" y1="412.2" x2="280.3" y2="388.4"/>
<line class="st0" x1="285.7" y1="391.8" x2="237.1" y2="419"/>
<line class="st4" x1="326.2" y1="367" x2="326.2" y2="332"/>
<line class="st12" x1="280" y1="352.1" x2="280" y2="387.2"/>
<line class="st16" x1="45.3" y1="255.7" x2="45.3" y2="302.1"/>
<line class="st12" x1="280" y1="352.1" x2="285.6" y2="355.4"/>
<polyline class="st12" points="326,331.4 320.7,328.8 280,352.2 "/>
<g>
	<line class="st17" x1="240.8" y1="120.1" x2="220.2" y2="132.1"/>
	<line class="st17" x1="199.7" y1="96.3" x2="240.8" y2="120.1"/>
	<line class="st17" x1="240.8" y1="122.3" x2="220.2" y2="134.2"/>
	<line class="st17" x1="221.8" y1="143.2" x2="221.8" y2="133.3"/>
	<line class="st17" x1="221.6" y1="143.3" x2="220.2" y2="144.1"/>
	<line class="st17" x1="199.7" y1="120.1" x2="220.2" y2="132.1"/>
	<line class="st18" x1="220.2" y1="144.1" x2="220.2" y2="134.2"/>
	<line class="st17" x1="179.3" y1="110.4" x2="220.2" y2="134.2"/>
	<line class="st17" x1="218.7" y1="143.2" x2="218.7" y2="133.3"/>
	<line class="st17" x1="218.8" y1="143.3" x2="220.2" y2="144.1"/>
	<line class="st17" x1="182.2" y1="120.3" x2="182.2" y2="112.2"/>
	<line class="st17" x1="182.1" y1="120.4" x2="180.7" y2="121.2"/>
	<line class="st18" x1="180.7" y1="121.2" x2="180.7" y2="111.2"/>
	<line class="st17" x1="179.1" y1="120.3" x2="179.1" y2="108.2"/>
	<line class="st17" x1="179.3" y1="120.4" x2="180.7" y2="121.2"/>
	<line class="st17" x1="237.6" y1="132.2" x2="237.6" y2="124.1"/>
	<line class="st17" x1="237.8" y1="132.3" x2="239.2" y2="133.1"/>
	<line class="st18" x1="239.2" y1="133.1" x2="239.2" y2="123.2"/>
	<line class="st17" x1="240.8" y1="132.2" x2="240.8" y2="120.1"/>
	<line class="st17" x1="240.6" y1="132.3" x2="239.2" y2="133.1"/>
	<line class="st17" x1="179.1" y1="108.2" x2="199.7" y2="120.1"/>
	<line class="st17" x1="199.7" y1="96.3" x2="179.1" y2="108.2"/>
</g>
<line class="st19" x1="24.5" y1="119.5" x2="153.8" y2="194.9"/>
<line class="st19" x1="13.1" y1="119.5" x2="143.6" y2="195.6"/>
<line class="st19" x1="12.7" y1="164.9" x2="100.9" y2="217.3"/>
<line class="st0" x1="45.7" y1="255.7" x2="153.8" y2="195.6"/>
<line class="st0" x1="32.1" y1="256" x2="142.7" y2="195.3"/>
<g>
	<line class="st20" x1="241.1" y1="201.5" x2="241.1" y2="189.8"/>
	<line class="st20" x1="259.8" y1="190.9" x2="259.8" y2="180.9"/>
	<line class="st20" x1="202.1" y1="179" x2="202.1" y2="169"/>
	<line class="st21" x1="261.3" y1="177.9" x2="241.1" y2="189.8"/>
	<line class="st21" x1="220.8" y1="154.1" x2="261.3" y2="177.9"/>
	<line class="st21" x1="261.3" y1="180" x2="241.1" y2="191.9"/>
	<line class="st21" x1="242.6" y1="201" x2="242.6" y2="191"/>
	<line class="st21" x1="242.5" y1="201.1" x2="241.1" y2="201.9"/>
	<line class="st21" x1="220.8" y1="177.9" x2="241.1" y2="189.8"/>
	<line class="st21" x1="200.8" y1="168.2" x2="241.1" y2="191.9"/>
	<line class="st21" x1="239.5" y1="201" x2="239.5" y2="191"/>
	<line class="st21" x1="239.7" y1="201.1" x2="241.1" y2="201.9"/>
	<line class="st21" x1="203.7" y1="178" x2="203.7" y2="169.9"/>
	<line class="st21" x1="203.5" y1="178.1" x2="202.1" y2="179"/>
	<line class="st21" x1="200.6" y1="178" x2="200.6" y2="166"/>
	<line class="st21" x1="200.8" y1="178.1" x2="202.1" y2="179"/>
	<line class="st21" x1="258.2" y1="190" x2="258.2" y2="181.8"/>
	<line class="st21" x1="258.4" y1="190.1" x2="259.8" y2="190.9"/>
	<line class="st21" x1="261.3" y1="190" x2="261.3" y2="177.9"/>
	<line class="st21" x1="261.2" y1="190.1" x2="259.8" y2="190.9"/>
	<line class="st21" x1="200.6" y1="166" x2="220.8" y2="177.9"/>
	<path class="st21" d="M220.8,154.1l-1,0.6 M219.8,154.6L200.6,166"/>
	<path class="st21" d="M240.6,180.5l-5.2-3c-0.3-0.2-0.8-0.1-1.1,0.1l-3.2,1.9c-0.3,0.2-0.4,0.5-0.1,0.6l5.2,3
		c0.3,0.2,0.8,0.1,1.1-0.1l3.2-1.9C240.9,180.9,240.9,180.6,240.6,180.5z"/>
	<polygon class="st22" points="232.1,179.7 236.6,182.4 239.6,180.7 235.2,178.1 	"/>
	<path class="st21" d="M230.6,174.4l-5.2-3c-0.3-0.2-0.8-0.1-1.1,0.1l-3.2,1.9c-0.3,0.2-0.4,0.5-0.1,0.6l5.2,3
		c0.3,0.2,0.8,0.1,1.1-0.1l3.2-1.9C230.9,174.8,230.9,174.5,230.6,174.4z"/>
	<polygon class="st22" points="222.1,173.6 226.6,176.3 229.6,174.6 225.1,172 	"/>
	<path class="st21" d="M219.9,168.3l-5.2-3c-0.3-0.2-0.8-0.1-1.1,0.1l-3.2,1.9c-0.3,0.2-0.4,0.5-0.1,0.6l5.2,3
		c0.3,0.2,0.8,0.1,1.1-0.1l3.2-1.9C220.2,168.7,220.2,168.4,219.9,168.3z"/>
	<polygon class="st22" points="211.4,167.5 215.9,170.2 218.9,168.5 214.4,165.9 	"/>
	<line class="st21" x1="202.8" y1="167.4" x2="223.1" y2="179.3"/>
	<path class="st23" d="M227.1,163.2l-4.2-2.3c-0.2-0.1-0.6-0.1-0.9,0.1l-2.5,1.5c-0.3,0.2-0.3,0.4-0.1,0.5l4.2,2.3
		c0.2,0.1,0.6,0.1,0.9-0.1l2.5-1.5C227.3,163.5,227.4,163.3,227.1,163.2z"/>
	<polygon class="st24" points="220.3,162.7 223.9,164.7 226.3,163.4 222.7,161.3 	"/>
	<path class="st23" d="M235.5,167.4l-4.2-2.3c-0.2-0.1-0.6-0.1-0.9,0.1l-2.5,1.5c-0.3,0.2-0.3,0.4-0.1,0.5l4.2,2.3
		c0.2,0.1,0.6,0.1,0.9-0.1l2.5-1.5C235.7,167.8,235.7,167.5,235.5,167.4z"/>
	<polygon class="st24" points="228.6,166.9 232.3,169 234.7,167.6 231,165.6 	"/>
	<path class="st23" d="M243.4,172.2l-4.2-2.3c-0.2-0.1-0.6-0.1-0.9,0.1l-2.5,1.5c-0.3,0.2-0.3,0.4-0.1,0.5l4.2,2.3
		c0.2,0.1,0.6,0.1,0.9-0.1l2.5-1.5C243.6,172.5,243.6,172.3,243.4,172.2z"/>
	<polygon class="st24" points="236.5,171.7 240.2,173.7 242.6,172.4 238.9,170.3 	"/>
	<path class="st23" d="M251.1,176.6l-4.2-2.3c-0.2-0.1-0.6-0.1-0.9,0.1l-2.5,1.5c-0.3,0.2-0.3,0.4-0.1,0.5l4.2,2.3
		c0.2,0.1,0.6,0.1,0.9-0.1l2.5-1.5C251.3,177,251.4,176.7,251.1,176.6z"/>
	<polygon class="st24" points="244.3,176.1 248,178.2 250.3,176.8 246.7,174.8 	"/>
</g>
<g>
	<line class="st25" x1="274.6" y1="176.7" x2="274.6" y2="164.9"/>
	<line class="st25" x1="293" y1="166" x2="293" y2="156"/>
	<line class="st25" x1="236.3" y1="154.1" x2="236.3" y2="144.1"/>
	<line class="st26" x1="294.5" y1="153" x2="274.6" y2="164.9"/>
	<line class="st26" x1="254.7" y1="129.2" x2="294.5" y2="153"/>
	<line class="st26" x1="294.5" y1="155.1" x2="274.6" y2="167.1"/>
	<line class="st26" x1="276.1" y1="176.1" x2="276.1" y2="166.2"/>
	<line class="st26" x1="276" y1="176.2" x2="274.6" y2="177"/>
	<line class="st26" x1="254.7" y1="153" x2="274.6" y2="164.9"/>
	<line class="st26" x1="235" y1="143.3" x2="274.6" y2="167.1"/>
	<line class="st26" x1="273.1" y1="176.1" x2="273.1" y2="166.2"/>
	<line class="st26" x1="273.3" y1="176.2" x2="274.6" y2="177"/>
	<line class="st26" x1="237.8" y1="153.2" x2="237.8" y2="145"/>
	<line class="st26" x1="237.7" y1="153.3" x2="236.3" y2="154.1"/>
	<line class="st26" x1="234.8" y1="153.2" x2="234.8" y2="141.1"/>
	<line class="st26" x1="235" y1="153.3" x2="236.3" y2="154.1"/>
	<line class="st26" x1="291.5" y1="165.1" x2="291.5" y2="157"/>
	<line class="st26" x1="291.7" y1="165.2" x2="293" y2="166"/>
	<line class="st26" x1="294.5" y1="165.1" x2="294.5" y2="153"/>
	<line class="st26" x1="294.4" y1="165.2" x2="293" y2="166"/>
	<line class="st26" x1="234.8" y1="141.1" x2="254.7" y2="153"/>
	<path class="st26" d="M254.7,129.2l-1,0.6 M253.5,129.9l-18.8,11.2"/>
	<line class="st26" x1="237" y1="142.5" x2="256.9" y2="154.4"/>
</g>
<g>
	<polygon class="st27" points="214.4,113.4 211.9,112 211.9,118.1 214.4,116.5 	"/>
	<polygon class="st17" points="211.9,112 214.4,113.4 214.4,116.5 211.9,118.1 204,113.6 204,107.2 211.9,111.7 	"/>
	<polygon class="st27" points="204,107.2 204,113.6 211.9,118.1 211.9,111.7 	"/>
	<polygon class="st27" points="211.9,117.3 214.4,115.7 214.4,116.5 211.9,118.1 	"/>
	<line class="st27" x1="211.9" y1="112.7" x2="214.4" y2="114.1"/>
	<line class="st27" x1="211.9" y1="116.6" x2="214.4" y2="114.9"/>
</g>
<g>
	<polygon class="st27" points="203.4,107.2 200.9,105.7 200.9,111.9 203.4,110.2 	"/>
	<polygon class="st17" points="200.9,105.7 203.4,107.2 203.4,110.2 200.9,111.9 193,107.3 193,100.9 200.9,105.5 	"/>
	<polygon class="st27" points="193,100.9 193,107.3 200.9,111.9 200.9,105.5 	"/>
	<polygon class="st27" points="200.9,111 203.4,109.4 203.4,110.2 200.9,111.9 	"/>
	<line class="st27" x1="200.9" y1="106.4" x2="203.4" y2="107.8"/>
	<line class="st27" x1="200.9" y1="110.3" x2="203.4" y2="108.6"/>
</g>
<g>
	<line class="st27" x1="222.8" y1="123.3" x2="225.9" y2="121.3"/>
	<polygon class="st27" points="227,121.2 222.7,118.7 222.7,124.8 227,121.9 	"/>
	<polygon class="st17" points="222.7,118.7 227,121.2 227,121.9 222.7,124.8 214.8,120.3 214.8,113.8 222.7,118.4 	"/>
	<polygon class="st27" points="214.8,113.8 214.8,120.3 222.7,124.8 222.7,118.4 	"/>
	<polygon class="st27" points="222.7,124 227,121.2 227,121.9 222.7,124.8 	"/>
	<line class="st27" x1="222.7" y1="119.4" x2="225.8" y2="121.2"/>
	<line class="st27" x1="222.8" y1="123.3" x2="225.8" y2="121.1"/>
</g>
<g>
	<line class="st28" x1="117.3" y1="276.3" x2="140.1" y2="288.2"/>
	<line class="st28" x1="191.5" y1="237.3" x2="117.3" y2="276.3"/>
	<line class="st28" x1="117.3" y1="278.4" x2="140.1" y2="290.3"/>
	<polyline class="st28" points="138.3,289.4 138.3,302.3 140.1,303.3 	"/>
	<line class="st28" x1="138.5" y1="302.4" x2="140.1" y2="303.3"/>
	<line class="st28" x1="162.8" y1="276.3" x2="140.1" y2="288.2"/>
	<line class="st29" x1="140.1" y1="303.3" x2="140.1" y2="290.3"/>
	<line class="st28" x1="214" y1="251.4" x2="140.1" y2="290.3"/>
	<polyline class="st28" points="141.8,289.4 141.8,302.3 140.1,303.3 141.6,302.4 	"/>
	<line class="st28" x1="210.7" y1="264.2" x2="210.7" y2="253.1"/>
	<line class="st28" x1="210.9" y1="264.3" x2="212.4" y2="265.1"/>
	<line class="st29" x1="212.4" y1="265.1" x2="212.4" y2="252.2"/>
	<line class="st28" x1="214.2" y1="264.2" x2="214.2" y2="249.2"/>
	<line class="st28" x1="214" y1="264.3" x2="212.4" y2="265.1"/>
	<line class="st28" x1="120.8" y1="291.3" x2="120.8" y2="280.2"/>
	<line class="st28" x1="120.6" y1="291.4" x2="119.1" y2="292.2"/>
	<line class="st29" x1="119.1" y1="292.2" x2="119.1" y2="279.3"/>
	<line class="st28" x1="117.3" y1="291.3" x2="117.3" y2="276.3"/>
	<line class="st28" x1="117.5" y1="291.4" x2="119.1" y2="292.2"/>
	<line class="st28" x1="214.2" y1="249.2" x2="162.8" y2="276.3"/>
	<line class="st28" x1="191.5" y1="237.3" x2="214.2" y2="249.2"/>
</g>
<g>
	<line class="st17" x1="204.9" y1="143.6" x2="184.4" y2="155.6"/>
	<line class="st17" x1="163.8" y1="119.8" x2="204.9" y2="143.6"/>
	<line class="st17" x1="204.9" y1="145.7" x2="184.4" y2="157.7"/>
	<line class="st17" x1="185.9" y1="166.7" x2="185.9" y2="156.8"/>
	<line class="st17" x1="185.8" y1="166.8" x2="184.4" y2="167.6"/>
	<line class="st17" x1="163.8" y1="143.6" x2="184.4" y2="155.6"/>
	<line class="st18" x1="184.4" y1="167.6" x2="184.4" y2="157.7"/>
	<line class="st17" x1="143.4" y1="133.9" x2="184.4" y2="157.7"/>
	<line class="st17" x1="182.8" y1="166.7" x2="182.8" y2="156.8"/>
	<line class="st17" x1="183" y1="166.8" x2="184.4" y2="167.6"/>
	<line class="st17" x1="146.4" y1="143.8" x2="146.4" y2="135.6"/>
	<line class="st17" x1="146.2" y1="143.9" x2="144.8" y2="144.7"/>
	<line class="st18" x1="144.8" y1="144.7" x2="144.8" y2="134.7"/>
	<line class="st17" x1="143.3" y1="143.8" x2="143.3" y2="131.7"/>
	<line class="st17" x1="143.4" y1="143.9" x2="144.8" y2="144.7"/>
	<line class="st17" x1="201.8" y1="155.7" x2="201.8" y2="147.6"/>
	<line class="st17" x1="202" y1="155.8" x2="203.4" y2="156.6"/>
	<line class="st18" x1="203.4" y1="156.6" x2="203.4" y2="146.7"/>
	<line class="st17" x1="204.9" y1="155.7" x2="204.9" y2="143.6"/>
	<line class="st17" x1="204.8" y1="155.8" x2="203.4" y2="156.6"/>
	<line class="st17" x1="143.3" y1="131.7" x2="163.8" y2="143.6"/>
	<line class="st17" x1="163.8" y1="119.8" x2="143.3" y2="131.7"/>
</g>
<g>
	<path class="st30" d="M259,340.9h1.1l1.1-0.3l0.7,0.7l1.1,0.9l0.6,0.4c0,0,0.2,0.5,0.2,0.6s0,0.6-0.1,0.5s-0.8,0.2-0.8,0.2
		l-1.2-0.2c0,0-0.8-0.2-0.8-0.4s-0.6-0.6-0.6-0.6s-0.4,0-0.6,0c-0.2-0.1-0.7-0.3-0.7-0.3s-0.4-0.2-0.4-0.3
		C258.7,342,259,340.9,259,340.9z"/>
	<polygon class="st31" points="258.8,326.3 260.3,326.4 262.6,326.2 263.9,325.7 264.8,325 264.9,324.6 265.1,326.7 265.1,328.1 
		265.4,332.5 265.5,335.3 265.5,337.5 265.2,338.1 263.5,338.1 263.2,337.4 263.2,332.9 262.1,329.9 261.5,335.2 261.6,336.9 
		261.2,340.6 260.5,341 259.5,340.9 259,340.6 258.7,333.4 258.4,328.9 258.5,326.5 	"/>
	<polygon class="st32" points="258.4,322 258.4,323.9 258.5,325.2 258.5,326.2 259.6,326.3 261.1,326.4 262.6,326.2 263.9,325.7 
		264.5,325.3 264.9,324.5 264.8,320.1 264.8,319.9 263.9,320.6 263.3,321 261.1,324.1 260.4,324.5 259.5,323.7 258.7,322 	"/>
	<polygon class="st32" points="260.6,315.4 261.4,316.1 262.4,316.1 263,315.9 263.5,315 263.3,314.4 263.7,313.9 264.9,313.6 
		265.7,314 266.2,315.2 266.1,317.9 265.9,318.4 265.4,318.5 265.2,318 264.6,317.8 264.3,318.1 264.1,318.7 263.9,318.9 263.3,319 
		263,319.8 262.7,320.4 261.8,321.1 260.7,322.3 260.5,321.8 259.6,322 258.5,322 258.1,321.2 257.7,319 257.9,317 258.5,316.2 
		259.4,315.8 	"/>
	<path class="st33" d="M259.8,311.5l0.2-0.3h0.4l0.2,0.4v0.2l0.6-1.1l0.6,0.2l1.4,0.2l0.6-0.2l1.1-0.3l-0.1-0.7l-1.2-1.6l-2.1-0.2
		l-0.9,0.3c0,0-0.6,0.6-0.7,0.9s-0.2,1.5-0.2,1.6s0.1,0.8,0.1,0.8V311.5z"/>
	<polygon class="st34" points="262.8,319.5 263.1,319.5 263.9,318.9 264.2,318.6 264.4,317.9 264.6,317.8 265,317.8 265.3,317.1 
		265.7,316.1 264.2,316.6 	"/>
	<path class="st35" d="M264.9,318.4l1.1,0.3l-0.2,5.7l0.6,0.8c0,0,0,0.9,0,1.1c-0.1,0.2-0.4,0.8-0.4,0.8l-0.6,0.5l-0.3-0.4l-0.3-2.9
		l0.1-1v-3.1l-0.1-0.6L264.9,318.4z"/>
	<polygon class="st35" points="258.8,322.1 259.5,322 260.4,321.6 260.6,322.4 261.6,321.3 262.6,320.5 262.9,319.9 263.5,319 
		264,318.8 264.2,318.5 264.3,318.1 264.4,317.9 264.6,317.8 265,317.8 265.2,318 265.3,318.3 265.2,318.7 265,319.5 264.7,319.8 
		264.4,320.2 263.6,320.8 263.3,321 262.7,322 261.7,323.5 261,324.2 260.3,324.5 260,324.3 259.4,323.5 258.9,322.4 	"/>
	<path class="st35" d="M260.5,311.8l-0.1-0.4c0,0-0.1-0.3-0.2-0.3s-0.4,0-0.4,0l-0.2,0.3l-0.1,0.4l0.3,0.4l0.1,0.3l0.4,1l0.4,0.5
		l-0.4,0.9l0.1,0.4l0.4,0.4l0.7,0.3l0.7-0.1l0.8-0.6l0.2-0.5l-0.1-0.7l0.3-0.3l0.6-1.9l-0.1-0.8l0.2-0.7l-0.7,0.3L262,311l-0.7-0.2
		l-0.2-0.1l-0.3,0.9L260.5,311.8z"/>
	<path class="st30" d="M263.1,338.3h1.1l1.1-0.3l0.7,0.7l1.1,0.9l0.6,0.4c0,0,0.2,0.5,0.2,0.6s0,0.6-0.1,0.5s-0.8,0.2-0.8,0.2
		l-1.2-0.2c0,0-0.8-0.2-0.8-0.4c0-0.1-0.6-0.6-0.6-0.6s-0.4,0-0.6,0s-0.7-0.3-0.7-0.3s-0.4-0.2-0.4-0.3
		C262.9,339.4,263.1,338.3,263.1,338.3z"/>
	<path class="st36" d="M258.9,316c-0.7,0.2-1,0.8-1.1,1.9"/>
	<path class="st36" d="M260.3,321c0.3,0.7-1.6,1.4-2,0.9"/>
	<path class="st36" d="M257.8,318c0,0.9-0.2,2.1,0.5,3.9"/>
	<path class="st36" d="M259.8,318.7c0.3,0.8,0.6,1.7,0.6,2.5"/>
	<path class="st36" d="M265.6,318.5c0.3-0.1,0.5-0.3,0.6-0.6"/>
	<line class="st36" x1="266.1" y1="315.1" x2="266.1" y2="317.9"/>
	<line class="st6" x1="264.8" y1="320.1" x2="264.8" y2="323.9"/>
	<line class="st36" x1="258.8" y1="316.1" x2="260.7" y2="315.1"/>
	<path class="st6" d="M260.6,315.1c0.2,1.6,3.5,1.4,2.8-0.8"/>
	<line class="st36" x1="263.7" y1="313.9" x2="264.3" y2="313.6"/>
	<path class="st36" d="M264.3,313.6c0.6-0.3,1.5,0.2,1.7,0.9c0.1,0.3,0.1,0.3,0.1,0.7"/>
	<path class="st36" d="M265.9,318.4c0,2.5,0,4.5-0.1,6c0.5,0.7,0.9,2.4-0.6,3.2"/>
	<path class="st36" d="M265.1,327.6c0.2,2.3,0.3,4.1,0.3,5.3c0.2,2.7,0.2,4.3,0.1,4.9s-0.9,0.7-2.2,0.2"/>
	<path class="st6" d="M265.4,333.3c-0.2,0.2-0.6,0.3-1.2,0.1"/>
	<path class="st36" d="M263,328.5c-0.2,0.5-0.5,0.8-0.9,1c0.2,0.9,0.6,2.1,1.1,3.3c0,0.7,0,2.4,0,5.1"/>
	<path class="st36" d="M258.5,325.6c-0.4,4.5,0.5,10.3,0.4,15c0.4,0.5,1.9,0.4,2.2,0c0.1-0.1,0.1-1.9,0.3-5.4c0.3-1,0.5-2.8,0.6-5.7
		"/>
	<path class="st6" d="M261.4,335.4c-0.3,0.3-0.7,0.4-1.2,0.2"/>
	<path class="st36" d="M260.8,314.2c0,0.3-0.1,0.6-0.2,0.9"/>
	<path class="st36" d="M260.8,314.2c-0.4-0.6-0.6-1.1-0.7-1.4"/>
	<path class="st6" d="M264.5,310.1c-0.6,1.1-1.7,1.3-3.4,0.6"/>
	<path class="st36" d="M264.3,310.6c0.4-0.2,0.1-0.9,0.1-1.1c-0.3-1-1-1.5-2.2-1.6c-2.4,0-3.2,1.4-2.6,4.1c0,0.1,0.5,0.6,0.5,0.7"/>
	<path class="st6" d="M261.1,310.7c-0.2,0.5-0.3,0.9-0.6,1.2c0-0.5-0.2-0.8-0.4-0.8c-0.6,0.2-0.5,0.9,0,1.3c0.1,0.1,0.3,0.3,0.6,0.1
		"/>
	<path class="st36" d="M264.3,310.6c0,0.1-0.2,0.5-0.2,0.8s0.1,0.5,0.1,0.8c0,0.5-0.2,1.2-0.5,1.7"/>
	<path class="st6" d="M265.5,325.5c0,0.4-0.1,0.6-0.2,0.8"/>
	<path class="st6" d="M264.9,324.4c-0.1,1.6-2.9,2.3-6.2,1.9"/>
	<path class="st36" d="M258.4,322c0,0.9,0,2.6,0.1,3.8"/>
	<path class="st6" d="M260.1,326.4c0.1,0.9-0.2,1.4-0.7,1.7"/>
	<path class="st6" d="M263.9,325.8c0.1,0.5,0.4,0.7,0.7,0.9"/>
	<path class="st6" d="M262.8,326.1c0.2,0.3,0.1,0.6,0.1,1.2"/>
	<path class="st6" d="M258.8,322.1c0.3,1,0.7,1.7,1.2,2.2c0.6,0.6,1.8-0.6,3.4-3.4"/>
	<path class="st6" d="M259.8,318.7c0.3,1.2,0.5,2.3,0.8,3.7"/>
	<path class="st6" d="M260,323.3c1-1.7,2.3-2.7,2.8-3"/>
	<path class="st6" d="M263.4,320.9c1.2-0.8,1.8-1.3,1.9-2.5"/>
	<path class="st6" d="M262.7,320.4c0.3-1,0.7-1.5,1.2-1.5"/>
	<path class="st6" d="M265.4,318.6c-0.1-1.1-1.1-1-1.1-0.5c0,0.4-0.1,0.7-0.4,0.7"/>
	<polyline class="st6" points="264.2,316.6 265.7,316.1 265,317.8 	"/>
	<line class="st6" x1="264.2" y1="316.6" x2="262.8" y2="319.5"/>
	<path class="st6" d="M263.9,318.9c0.2,0.1,0.1,0.3-0.1,0.6c-0.1,0.1-0.3,0.3-0.4,0.5"/>
	<line class="st6" x1="262.8" y1="319.5" x2="263.2" y2="319.4"/>
	<path class="st6" d="M263.8,313.8c-0.3,0.4-0.7,0.7-1.2,0.7c-0.4,0-0.8-0.2-1.1-0.5"/>
	<path class="st36" d="M261.4,340.9c0.2,0.1,1.2,1.1,1.6,1.4c0.3,0.2,0.5,0.3,0.6,0.4c0.8,0.7,0,1.4-0.9,1.3c-1-0.1-1.7-0.4-2-0.9
		c-0.1-0.2-0.1-0.3-0.3-0.3c-0.1,0-0.1,0.1-0.2,0.1c-0.5-0.1-1-0.3-1.2-0.5c-0.1-0.1-0.1-0.1-0.1-0.2s0-0.4,0-0.7
		c0-0.2,0.1-0.3,0.1-0.4"/>
	<path class="st6" d="M260.8,341.9c-0.3-0.2-0.9-0.5-0.3-0.9"/>
	<path class="st36" d="M265.5,338.2c0.2,0.1,1.2,1.1,1.6,1.4c0.3,0.2,0.5,0.3,0.6,0.4c0.8,0.7,0,1.4-0.9,1.3c-1-0.1-1.7-0.4-2-0.9
		c-0.1-0.2-0.1-0.3-0.3-0.3c-0.1,0-0.1,0.1-0.2,0.1c-0.5-0.1-1-0.3-1.2-0.5c-0.1-0.1-0.1-0.1-0.1-0.2s0-0.4,0-0.7
		c0-0.2,0.1-0.3,0.1-0.4"/>
	<path class="st6" d="M264.9,339.2c-0.3-0.2-0.9-0.5-0.3-0.9"/>
	<line class="st6" x1="264.8" y1="323.9" x2="265.2" y2="327.3"/>
</g>
<g>
	<path class="st30" d="M281.1,124.6h-1.2l-1.2-0.3L278,125l-1.1,0.9l-0.7,0.4c0,0-0.3,0.5-0.3,0.6s0,0.6,0.1,0.5s0.9,0.2,0.9,0.2
		l1.3-0.2c0,0,0.8-0.2,0.8-0.4c0-0.1,0.6-0.6,0.6-0.6s0.5,0,0.6,0c0.2-0.1,0.7-0.3,0.7-0.3s0.5-0.2,0.4-0.3
		C281.4,125.7,281.1,124.6,281.1,124.6z"/>
	<polygon class="st37" points="281.3,110 279.7,110.1 277.4,109.9 275.9,109.4 275.1,108.7 274.9,108.3 274.7,110.4 274.7,111.8 
		274.4,116.2 274.3,119 274.3,121.2 274.6,121.8 276.4,121.8 276.7,121.1 276.7,116.6 277.9,113.6 278.5,118.9 278.4,120.6 
		278.8,124.3 279.5,124.7 280.6,124.6 281.1,124.3 281.4,117.1 281.7,112.6 281.6,110.2 	"/>
	<polygon class="st32" points="281.7,105.7 281.7,107.6 281.6,108.9 281.6,109.9 280.4,110 278.9,110.1 277.4,109.9 275.9,109.4 
		275.3,109 274.9,108.2 275,103.8 275,103.6 275.9,104.3 276.5,104.7 278.9,107.7 279.6,108.2 280.6,107.4 281.4,105.7 	"/>
	<polygon class="st32" points="279.4,99.1 278.6,99.8 277.5,99.8 276.9,99.6 276.4,98.6 276.5,98 276.1,97.6 274.9,97.3 274.1,97.7 
		273.6,98.9 273.6,101.6 273.9,102.1 274.4,102.2 274.6,101.7 275.3,101.5 275.5,101.8 275.7,102.4 276,102.6 276.6,102.7 
		276.9,103.5 277.2,104.1 278.2,104.8 279.3,106 279.6,105.5 280.5,105.7 281.6,105.7 282,104.9 282.4,102.7 282.2,100.7 
		281.6,99.9 280.7,99.5 	"/>
	<path class="st33" d="M280.3,95.2l-0.2-0.3h-0.4l-0.2,0.4v0.2l-0.6-1.1l-0.6,0.2l-1.4,0.2l-0.6-0.2l-1.1-0.3l0.1-0.7l1.2-1.6
		l2.2-0.2l0.9,0.3c0,0,0.7,0.6,0.8,0.9c0.1,0.3,0.3,1.5,0.3,1.6s-0.1,0.8-0.1,0.8L280.3,95.2z"/>
	<polygon class="st34" points="277.1,103.2 276.8,103.2 276,102.6 275.6,102.3 275.5,101.6 275.3,101.5 274.9,101.4 274.6,100.8 
		274.1,99.8 275.6,100.3 	"/>
	<path class="st35" d="M274.9,102.1l-1.1,0.3l0.2,5.7l-0.6,0.8c0,0,0,0.9,0,1.1c0.1,0.2,0.4,0.8,0.4,0.8l0.6,0.5l0.3-0.4l0.3-2.9
		l-0.1-1v-3.1l0.1-0.6L274.9,102.1z"/>
	<polygon class="st35" points="281.3,105.8 280.6,105.7 279.6,105.3 279.5,106.1 278.3,104.9 277.4,104.2 277,103.6 276.4,102.7 
		275.9,102.5 275.6,102.2 275.5,101.8 275.5,101.6 275.3,101.5 274.9,101.4 274.6,101.7 274.5,102 274.6,102.4 274.8,103.2 
		275.1,103.5 275.5,103.9 276.3,104.5 276.5,104.7 277.2,105.7 278.3,107.2 279,107.9 279.7,108.2 280.1,108 280.7,107.2 
		281.2,106.1 	"/>
	<path class="st35" d="M279.5,95.5l0.1-0.4c0,0,0.1-0.3,0.2-0.3s0.4,0,0.4,0l0.2,0.3l0.1,0.4l-0.3,0.4l-0.1,0.3l-0.4,1l-0.4,0.5
		l0.4,0.9l-0.1,0.4l-0.4,0.4l-0.7,0.3l-0.8-0.1l-0.8-0.6l-0.2-0.5l0.1-0.7l-0.3-0.3l-0.7-1.9l0.1-0.8l-0.2-0.7l0.7,0.3l1.7,0.1
		l0.7-0.2l0.2-0.1l0.4,0.9L279.5,95.5z"/>
	<path class="st30" d="M276.8,122h-1.2l-1.2-0.3l-0.7,0.7l-1.1,0.9l-0.7,0.4c0,0-0.3,0.5-0.3,0.6s0,0.6,0.1,0.5s0.9,0.2,0.9,0.2
		l1.3-0.2c0,0,0.8-0.2,0.8-0.4c0-0.1,0.6-0.6,0.6-0.6s0.5,0,0.6,0s0.7-0.3,0.7-0.3s0.5-0.2,0.4-0.3C277,123.1,276.8,122,276.8,122z"
		/>
	<path class="st38" d="M281.2,99.7c0.7,0.2,1.1,0.8,1.1,1.9"/>
	<path class="st38" d="M279.7,104.7c-0.3,0.7,1.7,1.4,2.1,0.9"/>
	<path class="st38" d="M282.3,101.7c0,0.9,0.2,2.1-0.5,3.9"/>
	<path class="st38" d="M280.3,102.4c-0.4,0.8-0.6,1.7-0.6,2.5"/>
	<path class="st38" d="M274.2,102.2c-0.3-0.1-0.6-0.3-0.6-0.6"/>
	<line class="st38" x1="273.6" y1="98.8" x2="273.6" y2="101.6"/>
	<line class="st39" x1="275" y1="103.8" x2="275" y2="107.6"/>
	<line class="st38" x1="281.2" y1="99.8" x2="279.4" y2="98.8"/>
	<path class="st39" d="M279.5,98.8c-0.2,1.6-3.7,1.4-2.9-0.8"/>
	<line class="st38" x1="276.1" y1="97.6" x2="275.5" y2="97.3"/>
	<path class="st38" d="M275.5,97.3c-0.6-0.3-1.5,0.2-1.8,0.9c-0.1,0.3-0.1,0.3-0.1,0.7"/>
	<path class="st38" d="M273.9,102.1c-0.1,2.5,0,4.5,0.1,6c-0.5,0.7-1,2.4,0.6,3.2"/>
	<path class="st38" d="M274.7,111.3c-0.2,2.3-0.3,4.1-0.3,5.3c-0.2,2.7-0.2,4.3-0.1,4.9c0.1,0.6,0.9,0.7,2.3,0.2"/>
	<path class="st39" d="M274.4,117c0.2,0.2,0.6,0.3,1.3,0.1"/>
	<path class="st38" d="M277,112.2c0.2,0.5,0.5,0.8,0.9,1c-0.2,0.9-0.6,2.1-1.2,3.3c0,0.7,0,2.4,0,5.1"/>
	<path class="st38" d="M281.6,109.3c0.4,4.5-0.5,10.3-0.5,15c-0.4,0.5-2,0.4-2.3,0c-0.1-0.1-0.2-1.9-0.3-5.4c-0.3-1-0.5-2.8-0.6-5.7
		"/>
	<path class="st39" d="M278.5,119.1c0.4,0.3,0.8,0.4,1.3,0.2"/>
	<path class="st38" d="M279.2,97.9c0,0.3,0.1,0.6,0.2,0.9"/>
	<path class="st38" d="M279.2,97.9c0.4-0.6,0.6-1.1,0.8-1.4"/>
	<path class="st39" d="M275.4,93.8c0.6,1.1,1.8,1.3,3.5,0.6"/>
	<path class="st38" d="M275.6,94.3c-0.4-0.2-0.1-0.9-0.1-1.1c0.3-1,1.1-1.5,2.3-1.6c2.5,0,3.4,1.4,2.7,4.1c0,0.1-0.5,0.6-0.5,0.7"/>
	<path class="st39" d="M278.9,94.4c0.2,0.5,0.4,0.9,0.6,1.2c0-0.5,0.2-0.8,0.5-0.8c0.6,0.2,0.5,0.9,0,1.3c-0.1,0.1-0.3,0.3-0.6,0.1"
		/>
	<path class="st38" d="M275.6,94.3c0,0.1,0.2,0.5,0.2,0.8s-0.1,0.5-0.1,0.8c0,0.5,0.2,1.2,0.6,1.7"/>
	<path class="st39" d="M274.3,109.2c0,0.4,0.1,0.6,0.3,0.8"/>
	<path class="st39" d="M274.9,108.1c0.1,1.6,3,2.3,6.4,1.9"/>
	<path class="st38" d="M281.7,105.7c0,0.9-0.1,2.6-0.2,3.8"/>
	<path class="st39" d="M279.9,110.1c-0.1,0.9,0.2,1.4,0.7,1.7"/>
	<path class="st39" d="M276,109.4c-0.2,0.5-0.4,0.7-0.7,0.9"/>
	<path class="st39" d="M277.1,109.8c-0.2,0.3-0.1,0.6-0.1,1.2"/>
	<path class="st39" d="M281.3,105.8c-0.3,1-0.7,1.7-1.2,2.2c-0.6,0.6-1.8-0.6-3.6-3.4"/>
	<path class="st39" d="M280.3,102.4c-0.3,1.2-0.6,2.3-0.8,3.7"/>
	<path class="st39" d="M280,107c-1-1.7-2.4-2.7-2.9-3"/>
	<path class="st39" d="M276.5,104.6c-1.2-0.8-1.9-1.3-2-2.5"/>
	<path class="st39" d="M277.2,104.1c-0.3-1-0.7-1.5-1.2-1.5"/>
	<path class="st39" d="M274.4,102.3c0.1-1.1,1.1-1,1.1-0.5c0,0.4,0.1,0.7,0.4,0.7"/>
	<polyline class="st39" points="275.6,100.3 274.1,99.8 274.9,101.4 	"/>
	<line class="st39" x1="275.6" y1="100.3" x2="277.1" y2="103.2"/>
	<path class="st39" d="M276,102.6c-0.2,0.1-0.1,0.3,0.1,0.6c0.1,0.1,0.3,0.3,0.4,0.5"/>
	<line class="st39" x1="277.1" y1="103.2" x2="276.7" y2="103.1"/>
	<path class="st39" d="M276.1,97.5c0.3,0.4,0.7,0.7,1.2,0.7c0.4,0,0.9-0.2,1.1-0.5"/>
	<path class="st38" d="M278.6,124.6c-0.2,0.1-1.2,1.1-1.7,1.4c-0.3,0.2-0.6,0.3-0.7,0.4c-0.9,0.7,0,1.4,1,1.3
		c1.1-0.1,1.8-0.4,2.1-0.9c0.1-0.2,0.1-0.3,0.4-0.3c0.1,0,0.2,0.1,0.2,0.1c0.5-0.1,1-0.3,1.2-0.5c0.1-0.1,0.1-0.1,0.1-0.2
		c0-0.1,0-0.4,0-0.7c0-0.2-0.1-0.3-0.1-0.4"/>
	<path class="st39" d="M279.3,125.6c0.3-0.2,0.9-0.5,0.3-0.9"/>
	<path class="st38" d="M274.3,121.9c-0.2,0.1-1.2,1.1-1.7,1.4c-0.3,0.2-0.6,0.3-0.7,0.4c-0.9,0.7,0,1.4,1,1.3
		c1.1-0.1,1.8-0.4,2.1-0.9c0.1-0.2,0.1-0.3,0.4-0.3c0.1,0,0.2,0.1,0.2,0.1c0.5-0.1,1-0.3,1.2-0.5c0.1-0.1,0.1-0.1,0.1-0.2
		c0-0.1,0-0.4,0-0.7c0-0.2-0.1-0.3-0.1-0.4"/>
	<path class="st39" d="M274.9,122.9c0.3-0.2,0.9-0.5,0.3-0.9"/>
	<line class="st39" x1="275" y1="107.6" x2="274.6" y2="111"/>
</g>
<g>
	<polygon class="st40" points="103.3,129.8 103.4,131.7 103.4,133.1 103.4,134.1 104.6,134.2 106.1,134.2 107.5,134 108.9,133.5 
		109.5,133.1 109.9,132.4 109.8,127.9 109.7,127.7 108.9,128.4 108.3,128.8 106.1,131.9 105.4,132.3 104.5,131.5 103.7,129.8 	"/>
	<polygon class="st40" points="105.6,123.2 106.4,123.9 107.3,124 108,123.7 108.4,122.8 108.3,122.2 108.7,121.7 109.9,121.4 
		110.7,121.8 111.1,123 111.1,125.7 110.8,126.3 110.3,126.3 110.1,125.8 109.5,125.6 109.3,126 109.1,126.5 108.8,126.7 
		108.2,126.9 108,127.6 107.7,128.2 106.7,129 105.6,130.1 105.4,129.6 104.6,129.8 103.4,129.8 103.1,129.1 102.7,126.8 
		102.8,124.8 103.4,124 104.3,123.6 	"/>
	<path class="st41" d="M104.7,119.3l0.2-0.3h0.4l0.2,0.4v0.2l0.6-1.1l0.6,0.2l1.4,0.2l0.6-0.2l1.1-0.3l-0.1-0.7l-1.2-1.6l-2.1-0.2
		l-0.9,0.3c0,0-0.6,0.6-0.7,0.9s-0.2,1.5-0.2,1.6s0.1,0.8,0.1,0.8V119.3z"/>
	<polygon class="st34" points="107.7,127.4 108.1,127.3 108.8,126.7 109.2,126.4 109.3,125.7 109.5,125.6 109.9,125.6 110.2,124.9 
		110.7,124 109.2,124.4 	"/>
	<path class="st42" d="M109.9,126.2l1.1,0.3l-0.2,5.7l0.6,0.8c0,0,0,0.9,0,1.1c-0.1,0.2-0.4,0.8-0.4,0.8l-0.6,0.5l-0.3-0.4l-0.3-2.9
		l0.1-1V128l-0.1-0.6L109.9,126.2z"/>
	<polygon class="st42" points="103.8,129.9 104.4,129.8 105.4,129.4 105.5,130.2 106.6,129.1 107.5,128.3 107.9,127.7 108.5,126.8 
		109,126.7 109.2,126.3 109.3,126 109.3,125.7 109.5,125.6 109.9,125.6 110.1,125.8 110.3,126.1 110.1,126.5 110,127.3 109.7,127.7 
		109.4,128 108.6,128.6 108.3,128.8 107.7,129.8 106.6,131.3 105.9,132 105.2,132.3 104.9,132.2 104.3,131.3 103.9,130.2 	"/>
	<path class="st42" d="M105.5,119.7l-0.1-0.4c0,0-0.1-0.3-0.2-0.3s-0.4,0-0.4,0l-0.2,0.3l-0.1,0.4l0.3,0.4l0.1,0.3l0.4,1l0.4,0.5
		l-0.4,0.9l0.1,0.4l0.4,0.4l0.7,0.3l0.7-0.1l0.8-0.6l0.2-0.5l-0.1-0.7l0.3-0.3l0.6-1.9l-0.1-0.8l0.2-0.7l-0.7,0.3l-1.6,0.1l-0.7-0.2
		l-0.2-0.1l-0.3,0.9L105.5,119.7z"/>
	<path class="st36" d="M103.9,123.9c-0.7,0.2-1,0.8-1.1,1.9"/>
	<path class="st36" d="M105.3,128.9c0.3,0.7-1.6,1.4-2,0.9"/>
	<path class="st36" d="M102.8,125.8c0,0.9-0.2,2.1,0.5,3.9"/>
	<path class="st36" d="M104.7,126.5c0.3,0.8,0.6,1.7,0.6,2.5"/>
	<path class="st36" d="M110.6,126.3c0.3-0.1,0.5-0.3,0.6-0.6"/>
	<line class="st36" x1="111.1" y1="122.9" x2="111.1" y2="125.7"/>
	<line class="st6" x1="109.8" y1="127.9" x2="109.8" y2="131.8"/>
	<line class="st36" x1="103.8" y1="123.9" x2="105.6" y2="122.9"/>
	<path class="st6" d="M105.5,123c0.2,1.6,3.5,1.4,2.8-0.8"/>
	<path class="st36" d="M108.7,121.7l0.6-0.3c0.6-0.3,1.5,0.2,1.7,0.9c0.1,0.3,0.1,0.3,0.1,0.7"/>
	<path class="st36" d="M110.8,126.2c0,2.5,0,4.5-0.1,6c0.5,0.7,0.9,2.4-0.6,3.2"/>
	<path class="st36" d="M105.8,122c0,0.3-0.1,0.6-0.2,0.9"/>
	<path class="st36" d="M105.8,122c-0.4-0.6-0.6-1.1-0.7-1.4"/>
	<path class="st6" d="M109.4,117.9c-0.6,1.1-1.7,1.3-3.4,0.6"/>
	<path class="st36" d="M109.3,118.4c0.4-0.2,0.1-0.9,0.1-1.1c-0.3-1-1-1.5-2.2-1.6c-2.4,0-3.2,1.4-2.6,4.1c0,0.1,0.5,0.6,0.5,0.7"/>
	<path class="st6" d="M106.1,118.5c-0.2,0.5-0.3,0.9-0.6,1.2c0-0.5-0.2-0.8-0.4-0.8c-0.6,0.2-0.5,0.9,0,1.3c0.1,0.1,0.3,0.3,0.6,0.1
		"/>
	<path class="st36" d="M109.3,118.4c0,0.1-0.2,0.5-0.2,0.8s0.1,0.5,0.1,0.8c0,0.5-0.2,1.2-0.5,1.7"/>
	<path class="st6" d="M110.5,133.3c0,0.4-0.1,0.6-0.2,0.8"/>
	<path class="st6" d="M109.9,132.2c-0.1,1.6-2.9,2.3-6.2,1.9"/>
	<path class="st36" d="M103.3,129.8c0,0.9,0,2.6,0.1,3.8"/>
	<path class="st6" d="M105.1,134.2c0.1,0.9-0.2,1.4-0.7,1.7"/>
	<path class="st6" d="M108.8,133.6c0.1,0.5,0.4,0.7,0.7,0.9"/>
	<path class="st6" d="M107.8,134c0.2,0.3,0.1,0.6,0.1,1.2"/>
	<path class="st6" d="M103.8,129.9c0.3,1,0.7,1.7,1.2,2.2c0.6,0.6,1.8-0.6,3.4-3.4"/>
	<path class="st6" d="M104.7,126.5c0.3,1.2,0.5,2.3,0.8,3.7 M105,131.2c1-1.7,2.3-2.7,2.8-3"/>
	<path class="st6" d="M108.3,128.7c1.2-0.8,1.8-1.3,1.9-2.5"/>
	<path class="st6" d="M107.7,128.2c0.3-1,0.7-1.5,1.2-1.5"/>
	<path class="st6" d="M110.3,126.4c-0.1-1.1-1.1-1-1.1-0.5c0,0.4-0.1,0.7-0.4,0.7"/>
	<polyline class="st6" points="109.2,124.4 110.7,124 109.9,125.6 	"/>
	<line class="st6" x1="109.2" y1="124.4" x2="107.7" y2="127.4"/>
	<path class="st6" d="M108.8,126.7c0.2,0.1,0.1,0.3-0.1,0.6c-0.1,0.1-0.3,0.3-0.4,0.5"/>
	<line class="st6" x1="107.7" y1="127.4" x2="108.1" y2="127.2"/>
	<path class="st6" d="M108.8,121.6c-0.3,0.4-0.7,0.7-1.2,0.7c-0.4,0-0.8-0.2-1.1-0.5"/>
	<line class="st6" x1="109.8" y1="131.8" x2="110.1" y2="135.1"/>
	<path class="st43" d="M109.8,133l-0.7,0.5l-1.4,0.5l-2.6,0.2h-0.8l-0.2-0.1l-0.6-0.1l-0.1,3l1.3,6.5l-0.5,1.5l1.1,1l0.4,2.5
		c2.1,0.1,2.2,0.3,2.5-0.8c0.1-0.5-0.9-2.9-0.5-3.9c0.3-0.8,0.7-0.1,1.1-2.4l1.2-3l0.3-3.4L109.8,133z"/>
	<path class="st6" d="M108.5,142c-0.2,0.2-0.4,0.3-1.1,0.1"/>
	<path class="st36" d="M108.2,136.3c-0.2,0.5-0.5,0.8-0.9,1"/>
	<path class="st6" d="M109.9,132.2c-0.1,1.5-2.7,2.2-5.8,1.9c-0.2,0-0.3,0-0.5,0"/>
	<path class="st6" d="M105.1,134.2c0,0.5,0,0.8-0.2,1.1"/>
	<path class="st6" d="M108.8,133.6c0.1,0.5,0.4,0.7,0.7,0.9"/>
	<path class="st6" d="M107.8,134c0.2,0.3,0.1,0.6,0.1,1.2"/>
	<path class="st44" d="M108.3,148.7l2.2,1.3c0,0,0.5,0.4,0.5,0.5s-0.1,0.7-0.1,0.6c0,0-2.4,0.3-2.4,0.2s-0.7-0.5-0.7-0.5l-0.4-0.3
		l-0.4,0.3l-0.9-0.2l-0.2-0.7c0-0.1-0.1-0.6-0.1-0.6l0.1-0.5l0.4,0.1l1,0.1l0.4-0.2L108.3,148.7z"/>
	<path class="st44" d="M105.2,148.6c-0.1,0-0.4-0.8-0.4-0.8l-0.2-0.4l-0.5,0.1l-0.7-0.6c0,0,0.1-0.7,0.1-0.8s0.2-0.6,0.2-0.6
		l0.3-0.4l0.4,0.3l0.9,0.6l0.2,2.7L105.2,148.6z"/>
	<path class="st36" d="M109.8,131.8c-0.1,0.3,0,0.7,0.1,1.3c0.2,1.3,0.1,3.3,0.1,4.1c-0.1,2.3-0.7,2.8-1.7,5.3
		c-0.2,0.7-0.4,1.4-0.6,2"/>
	<path class="st36" d="M104.8,143.3c-0.2,0.6-0.4,1.1-0.6,1.8"/>
	<path class="st36" d="M103.5,133.7c-0.3,0.9,0.3,4.8,0.4,5.2c0.6,3.4,1.5,6.6,1.9,9.9c0.5,0.4,2,0.1,2.2-0.3c0-0.1-0.1-1.9-0.5-5.4
		c0.1-1,0.1-2.9-0.2-5.7"/>
	<path class="st6" d="M107.5,143.2c-0.3,0.3-0.7,0.5-1.2,0.3"/>
	<path class="st36" d="M108.2,148.6c0.2,0.1,1.3,0.9,1.8,1.1c0.3,0.2,0.6,0.2,0.7,0.3c0.9,0.6,0.2,1.4-0.7,1.4c-1,0-1.8-0.2-2.1-0.6
		c-0.2-0.2-0.1-0.3-0.4-0.3c-0.1,0-0.1,0.1-0.1,0.1c-0.5,0-1-0.1-1.2-0.3c-0.1-0.1-0.1,0-0.1-0.2c0-0.1-0.1-0.4-0.1-0.7
		c0-0.2,0-0.3,0-0.4"/>
	<path class="st6" d="M107.7,149.7c-0.3-0.1-0.9-0.4-0.4-0.8"/>
	<path class="st36" d="M105.7,148.9c-0.5-0.4-0.8-0.7-0.9-1.1c-0.1-0.2,0-0.3-0.2-0.4c-0.1,0-0.2,0-0.2,0c-0.5-0.2-0.8-0.6-0.9-0.9
		c0-0.1,0-0.1,0-0.2c0-0.1,0.1-0.4,0.2-0.7c0.1-0.2,0.2-0.3,0.2-0.3"/>
	<path class="st6" d="M105.3,146.8c-0.2-0.3-0.6-0.8,0-0.9"/>
	<path class="st36" d="M105.1,145.8c-0.5,0-0.8-0.4-1.1-0.5"/>
</g>
<g>
	<polygon class="st44" points="244,238.3 244.6,238.1 246,237.8 246.3,237.3 246.7,236.9 247.6,236.6 248.2,236.4 248.7,236.7 
		248.7,237.3 248.4,238.1 247.6,238.7 246.8,238.9 245.6,239.5 244.8,239.5 244,239.2 	"/>
	<path class="st36" d="M246.6,236.9c0.1,0.1,0.5,0,0.8-0.2s0.4-0.2,0.7-0.1c0.5,0.1,0.6,0.4,0.5,1c-0.3,0.8-0.8,1.1-1.2,1.2
		c-0.6,0-1,0.3-1.4,0.6c-0.6,0.2-1.5,0.2-1.8-0.1c-0.1-0.3-0.1-0.5,0-0.8"/>
	<polygon class="st43" points="239.2,225.1 240.4,225.8 242.4,226.3 243.9,226.4 245.3,225.9 245.2,228.4 244.7,233.6 246.5,237 
		244.3,238.2 243.8,237.1 241.4,241.9 240.4,242.3 239.4,241.5 240,239.2 241.8,235.4 241.6,232.6 240.2,230.3 238.8,228.2 
		238.8,226.9 	"/>
	<polygon class="st44" points="238.9,242 239.4,241.9 241,242.3 241.5,242.1 241.9,241.3 242.9,241.3 243.4,241.3 243.9,241.7 
		243.7,242.3 243.2,243 242.3,243.3 241.4,243.3 240.2,243.5 239.4,243.3 238.7,242.8 	"/>
	<path class="st36" d="M241.8,241.3c0.1,0.1,0.4,0.1,0.8,0c0.3-0.1,0.4-0.1,0.7,0.1c0.4,0.2,0.5,0.6,0.2,1.1c-0.5,0.6-1,0.8-1.5,0.9
		c-0.6-0.1-1.1,0.1-1.5,0.2c-0.6,0.1-1.5-0.2-1.7-0.6c0-0.3,0.3-1.1,0.4-1.4"/>
	<polygon class="st41" points="243.1,211.5 244,211.1 244.2,210.4 244,209.4 243.3,208.8 241.8,208.5 239.9,209.1 239.2,210.4 
		239.3,211.6 239.6,213.2 240.2,213.7 240.6,214 241.8,214.3 242.6,213.8 243,213.2 243.1,212.6 242.9,212.3 242.7,212 242.8,211.7 
		242.9,211.5 	"/>
	<polygon class="st42" points="245.7,222.2 246.4,222.1 247.1,221.8 247.3,221.4 247.5,220.9 247,220.3 246.8,219.6 247.1,218.4 
		247.2,217.9 247.4,217.5 246.2,216.8 246,216 245.8,215.3 246,214.7 246.4,214.6 246.8,214.3 247.1,214.1 248.2,214.8 248.2,215.9 
		248.1,216.7 248.2,220.3 247.7,222.8 247.4,223.1 246.2,222.8 	"/>
	<polygon class="st45" points="246,216.8 246.9,213.9 248,214.7 247.8,215.2 247.7,215.3 247.6,215.8 247.6,216.4 247.6,216.7 
		247.2,217.9 	"/>
	<path class="st42" d="M240.5,213.8l0.7,0.4h0.6l0.8-0.4l0.4-0.6l0.1-0.7l-0.3-0.3v-0.3l0.1-0.2l0.3-0.1l0.6-0.1l0.3-0.2v0.5
		l0.2,0.4c0,0-0.1,0.7-0.1,0.8s-0.4,0.9-0.4,0.9l-0.4,0.5l-0.4,0.2v1.1l-0.1,0.3l-0.9,0l-0.7-0.1l-1.1-0.5l-0.3-0.3l0.1-0.3
		L240.5,213.8z"/>
	<polygon class="st46" points="237.9,219 239,219 239,224.4 239,224.9 238.8,227.8 238.1,227.3 237.8,226.4 237.8,225.5 
		238.2,224.6 	"/>
	<polygon class="st47" points="240,214.5 239.4,214.2 238.7,214.2 237.7,215.1 237.6,216.6 237.7,218.8 238.2,219 238.8,218.9 
		239,219.9 239,224.6 239,224.9 239.2,225.1 241.5,226.2 245.3,226.2 245.4,223.4 245.7,222.2 246.4,222.1 247,221.8 247.4,221.3 
		247.4,220.8 246.7,219.4 245.8,217.5 244.6,216.5 243.1,215.7 242.5,215.9 241.3,215.9 240.4,215.5 239.9,214.9 	"/>
	<path class="st36" d="M244.9,216.7c0.7,0.2,1.5,1.6,1.8,2.7"/>
	<line class="st36" x1="237.6" y1="215.7" x2="237.6" y2="218.5"/>
	<line class="st36" x1="239" y1="217.2" x2="239" y2="224.6"/>
	<line class="st36" x1="244.9" y1="216.7" x2="243.1" y2="215.7"/>
	<path class="st36" d="M240,214.5l-0.6-0.3c-0.6-0.3-1.5,0.2-1.7,0.9c-0.1,0.3-0.1,0.3-0.1,0.7"/>
	<path class="st36" d="M237.9,219c0,2.5,0.2,4.2,0.3,5.6c-0.5,0.7-0.9,2.4,0.6,3.2"/>
	<path class="st36" d="M243,214.5c0,0.3,0,0.9,0.1,1.2"/>
	<path class="st36" d="M240.3,213.8c-0.9-0.6-1.3-2.4-0.9-3.6c0.3-1,1-1.5,2.2-1.6c1.7,0,2.7,0.5,2.7,2c0,0.2-0.1,0.5-0.1,0.8
		c0,0.1-0.3,0.3-0.1,0.4c0.4,0.4,0.1,1-0.1,1.4c-0.1,0.4-0.2,0.8-0.3,0.8c-0.1,0.2-0.7,0.6-1.2,0.6"/>
	<path class="st36" d="M245.4,221.9c0,0.9,0,2.8-0.1,4"/>
	<path class="st36" d="M247.8,222.5c-0.1,0.7-0.7,0.7-1.1,0.5c-0.3-0.2-0.6-0.3-0.9-0.7"/>
	<path class="st36" d="M248.2,214.8l-1.3-0.9l-0.9,2.9 M248.2,214.8l-0.1,0.4"/>
	<path class="st6" d="M244.5,227.1c-1,0.1-1.4,0.1-2.1-0.1"/>
	<path class="st36" d="M240,214.9c0.3-0.2,0.3-0.5,0.2-1.2"/>
	<path class="st36" d="M237.6,218.5c0.1,0.6,0.5,0.7,1.3,0.3"/>
	<path class="st6" d="M240.4,213.8c0.3,0.4,1.4,0.9,2.2,0.1"/>
	<path class="st6" d="M239.9,214.9c0.3,0.7,2.2,1.4,3,0.8"/>
	<path class="st6" d="M244.2,210.2c0,0.8-0.1,1.1-1,1.2"/>
	<path class="st6" d="M240.8,226.7c-0.7-0.1-1.1-0.3-1.5-0.6"/>
	<path class="st6" d="M247.4,220.8c0.4,0.8-1.5,1.9-2,1.2"/>
	<line class="st36" x1="244.2" y1="219.4" x2="245.4" y2="221.9"/>
	<line class="st6" x1="246.2" y1="218.5" x2="247.4" y2="220.8"/>
	<path class="st6" d="M243.2,212.5c-0.6-0.1-0.6-0.7-0.4-0.9c0.1-0.2,0.4,0,0.5,0.2"/>
	<path class="st6" d="M242.6,213.8c0.2-0.2,0.6-1,0.5-1.3"/>
	<path class="st36" d="M247.8,222.5c0.6-1.9,0.7-3.6,0.4-5.1c-0.1-0.3,0-1.9-0.1-2.2"/>
	<path class="st48" d="M246.1,216.1c-0.6-0.5,0.1-1.7,0.5-1.5"/>
	<path class="st36" d="M247,217.6c-0.2,0.7-0.2,1.4-0.2,2"/>
	<path class="st6" d="M248.1,215.3c-0.2-0.2-0.4-0.2-0.5,0.1c-0.1,0.5-0.1,1,0,1.3"/>
	<path class="st6" d="M239,224.6c-0.1,1.6,6,2.4,6.4,1.3"/>
	<line class="st6" x1="247.6" y1="216.7" x2="247.2" y2="217.9"/>
	<line class="st36" x1="246" y1="216.8" x2="247" y2="217.6"/>
	<path class="st36" d="M243.7,237.5l0.4,0.7c0.5,0.4,2.2-0.7,2.4-1.2c-0.5-0.9-1.1-2.1-1.7-3.4"/>
	<path class="st36" d="M245.3,226.2c-0.1,0.7,0,3.2-0.3,5.6c-0.2,1.6-0.7,3.7-0.8,4.2c-0.4,1.8-1.4,3-2.5,5.4
		c-0.3,0.7-1,1.1-1.8,0.7c-0.6-0.2-0.7-0.8-0.5-1.3c0.6-1.8,1.6-3.9,2.4-5.4l-0.3-5.3"/>
	<path class="st6" d="M243,235.7c-0.3-0.3-0.7-0.4-1.2-0.2"/>
	<path class="st36" d="M238.8,227.7c0.1,0.7,0.4,1.2,0.7,1.4c1,1.9,1.9,3.3,2.1,3.6"/>
	<path class="st6" d="M241.5,230c-0.4,0.1-1.7-0.5-1.9-0.8"/>
</g>
<polyline class="st0" points="325.7,368 320.4,365.2 320.4,335.3 "/>
<g>
	<path class="st49" d="M258.8,96.7c-0.1-2-0.1-4.5-0.1-6c0-2.4,0.8-6.1,0.8-6.1c0.7,1.3,1.9,1.6,2.5,0.5c0.7-1.1-0.1-1.3,1.5-1.8
		s0.5-2.5,2.2-1.6s2.5,1.7,3.9,1s1.6-0.2,2.3-1.8c0.7-1.6-1.1-0.2,1.3-1.1"/>
	<path class="st49" d="M259.9,101.8c0,0-0.2-0.7-0.7-2.4c-0.2-0.6-0.3-1.6-0.4-2.7"/>
	<path class="st49" d="M256.5,96.4c-0.1,2-0.6,4.6-1.2,5.3"/>
	<path class="st49" d="M256.5,85.4c0,0,0.2,8.4,0.1,10.5c0,0.2,0,0.4,0,0.6"/>
	<path class="st6" d="M264.9,66.2c-0.9,1.5-2.6,2.6-0.7,2.9s5.1,0.2,4.4,1.4c-0.7,1.2-1.6,1.9,0,1.6s1.5,0.7,2.8,0.9
		c1.3,0.2,1.8-2.1,1.8-2.1"/>
	<path class="st6" d="M262.3,63.4"/>
	<path class="st49" d="M279.4,64.7c-0.7-0.7-1.5-1.1-2.5-1.5c-2.7-1.1-1.6-6.1-6.5-5"/>
	<path class="st49" d="M274.7,80.3c1.6,0.1,1.8,0,2.7-1.7c0.9-1.7,3.3-1.2,3.5-4.3s4.2,3.2,1.8-3.1c-1.4-3.8-2.3-5.5-3.3-6.5"/>
	<path class="st6" d="M263.4,54c-0.3,0.1-0.7-0.2-1.2-0.8c-1.6-2-2-3.1-3.7-1.6s-1.8,3.3-3.1,1.6c-1.3-1.7-2,4.6-0.5,6.4
		c1.5,1.8,2.2,2.3,2.5,2.4"/>
	<path class="st49" d="M279.4,62.8c0,0,2.5-0.7,2-2.2s-2.6-2-1.6-2.9c1.1-0.8,3.6-0.7,1.6-2.2c-2-1.6-2.5-1.2-2.6-3.4
		s0.3-3.4-1.9-3.4c-2.2,0-4.1,0.7-5.2-0.7c-1.1-1.5-2.2-2.3-4-0.4c-1.2,1.3-1.7,2.6-2.4,2.8"/>
	<path class="st6" d="M246.2,58.7c-2.2,1.5,2.4,2.4,2,4.1c-0.4,1.7-0.8,2.8,1.5,2.4s4.6-0.7,5.4,0.7c0.8,1.4,1.5,1.6,2.9,0.6"/>
	<path class="st49" d="M258.6,45.7c0,0-3.3-2.2-6.2-2s-4.6,0.7-5.5,2.1s-1.4,2.4-3.7,3.4c-2,0.9-3.7,0.8-3.2,2.5
		c0.1,0.2,0.2,0.4,0.3,0.7"/>
	<path class="st6" d="M248.5,71.6c-1.2,1.1,0.9,1.8,2.2,1.4c2.7-0.8,1.7,0.7,4.3,0.2s3.4-0.6,3.3-2.5"/>
	<path class="st49" d="M238.9,56c0,0,0.2,2.1-1.9,2.7c-2,0.6-2.5,1.5-2,3.8c0.4,2.3,2,3.7,2.5,6.5s-0.9,7,1.9,6.3
		c1.4-0.3,1.9-0.2,2.5-0.1"/>
	<path class="st6" d="M256.5,84.8c2-2.1,8.4-2.5,4.3-5.1c-4.1-2.5-2.4-1.6-2.9-3.9"/>
	<path class="st49" d="M244.5,76.9c0,0-1.6,0.1-0.1,2.9c1.6,2.8,3.1,1.7,3.4,4.1c0.3,2.4-0.4,4.8,3.8,3.5s2.9-0.5,4.9-2.6"/>
	<path class="st50" d="M256.1,96.9"/>
	<path class="st51" d="M259.4,98.7c1.9,0.2,3.2,1,3.2,1.7c0,1-2.2,1.7-5,1.7c-2.7-0.1-4.9-0.9-4.9-1.9c0-0.8,1.4-1.4,3.4-1.6"/>
	<path class="st52" d="M250.2,100.6c0-1.8,2.1-3.6,6.1-3.7"/>
	<path class="st51" d="M264.7,100.4c0,2.1-3.3,3.8-7.3,3.8s-7.3-1.7-7.3-3.8"/>
	<path class="st52" d="M259.1,96.9c3.7,0.2,5.6,2.1,5.6,3.7"/>
	<path class="st51" d="M264.7,102.4c0,2.1-3.3,3.8-7.3,3.8s-7.3-1.7-7.3-3.8"/>
	<path class="st53" d="M264.7,100.5v5.9c0,2.1-3.3,3.8-7.3,3.8s-7.3-1.7-7.3-3.8v-6.2"/>
</g>
<g>
	<path class="st49" d="M324.4,139c-0.1-2-0.1-4.5-0.1-6c0-2.4,0.8-6.1,0.8-6.1c0.7,1.3,1.9,1.6,2.5,0.5c0.7-1.1-0.1-1.3,1.5-1.8
		s0.5-2.5,2.2-1.6s2.5,1.7,3.9,1c1.5-0.7,1.6-0.2,2.3-1.8s-1.1-0.2,1.3-1.1"/>
	<path class="st49" d="M325.5,144.1c0,0-0.2-0.7-0.7-2.4c-0.2-0.6-0.3-1.6-0.4-2.7"/>
	<path class="st49" d="M322.1,138.8c-0.1,2-0.6,4.6-1.2,5.3"/>
	<path class="st49" d="M322.1,127.7c0,0,0.2,8.4,0.1,10.5c0,0.2,0,0.4,0,0.6"/>
	<path class="st6" d="M330.5,108.5c-0.9,1.5-2.6,2.6-0.7,2.9s5.1,0.2,4.4,1.4c-0.7,1.2-1.6,1.9,0,1.6s1.5,0.7,2.8,0.9
		c1.3,0.2,1.8-2.1,1.8-2.1"/>
	<path class="st6" d="M327.9,105.8"/>
	<path class="st49" d="M345,107c-0.7-0.7-1.5-1.1-2.5-1.5c-2.7-1.1-1.6-6.1-6.5-5"/>
	<path class="st49" d="M340.3,122.7c1.6,0.1,1.8,0,2.7-1.7s3.3-1.2,3.5-4.3c0.2-3.1,4.2,3.2,1.8-3.1c-1.4-3.8-2.3-5.5-3.3-6.5"/>
	<path class="st6" d="M329,96.3c-0.3,0.1-0.7-0.2-1.2-0.8c-1.6-2-2-3.1-3.7-1.6s-1.8,3.3-3.1,1.6c-1.3-1.7-2,4.6-0.5,6.4
		s2.2,2.3,2.5,2.4"/>
	<path class="st49" d="M345,105.1c0,0,2.5-0.7,2-2.2c-0.6-1.5-2.6-2-1.6-2.9c1.1-0.8,3.6-0.7,1.6-2.2c-2-1.6-2.5-1.2-2.6-3.4
		s0.3-3.4-1.9-3.4c-2.2,0-4.1,0.7-5.2-0.7c-1.1-1.5-2.2-2.3-4-0.4c-1.2,1.3-1.7,2.6-2.4,2.8"/>
	<path class="st6" d="M311.8,101.1c-2.2,1.5,2.4,2.4,2,4.1s-0.8,2.8,1.5,2.4s4.6-0.7,5.4,0.7c0.8,1.4,1.5,1.6,2.9,0.6"/>
	<path class="st49" d="M324.2,88c0,0-3.3-2.2-6.2-2c-2.9,0.2-4.6,0.7-5.5,2.1s-1.4,2.4-3.7,3.4c-2,0.9-3.7,0.8-3.2,2.5
		c0.1,0.2,0.2,0.4,0.3,0.7"/>
	<path class="st6" d="M314.1,113.9c-1.2,1.1,0.9,1.8,2.2,1.4c2.7-0.8,1.7,0.7,4.3,0.2c2.6-0.5,3.4-0.6,3.3-2.5"/>
	<path class="st49" d="M304.5,98.3c0,0,0.2,2.1-1.9,2.7c-2,0.6-2.5,1.5-2,3.8s2,3.7,2.5,6.5s-0.9,7,1.9,6.3c1.4-0.3,1.9-0.2,2.5-0.1
		"/>
	<path class="st6" d="M322.1,127.1c2-2.1,8.4-2.5,4.3-5.1c-4.1-2.5-2.4-1.6-2.9-3.9"/>
	<path class="st49" d="M310.1,119.3c0,0-1.6,0.1-0.1,2.9c1.6,2.8,3.1,1.7,3.4,4.1c0.3,2.4-0.4,4.8,3.8,3.5c4.2-1.3,2.9-0.5,4.9-2.6"
		/>
	<path class="st50" d="M321.7,139.3"/>
	<path class="st51" d="M325,141.1c1.9,0.2,3.2,1,3.2,1.7c0,1-2.2,1.7-5,1.7c-2.7-0.1-4.9-0.9-4.9-1.9c0-0.8,1.4-1.4,3.4-1.6"/>
	<path class="st52" d="M315.8,142.9c0-1.8,2.1-3.6,6.1-3.7"/>
	<path class="st51" d="M330.3,142.8c0,2.1-3.3,3.8-7.3,3.8s-7.3-1.7-7.3-3.8"/>
	<path class="st52" d="M324.7,139.2c3.7,0.2,5.6,2.1,5.6,3.7"/>
	<path class="st51" d="M330.3,144.8c0,2.1-3.3,3.8-7.3,3.8s-7.3-1.7-7.3-3.8"/>
	<path class="st53" d="M330.3,142.9v5.9c0,2.1-3.3,3.8-7.3,3.8s-7.3-1.7-7.3-3.8v-6.2"/>
</g>
<g>
	<path class="st49" d="M216.3,349.9c0-2.4,0.8-6.1,0.8-6.1c0.7,1.3,1.9,1.6,2.5,0.5c0.7-1.1-0.1-1.3,1.5-1.8s0.5-2.5,2.2-1.6
		s2.5,1.7,3.9,1c1.5-0.7,1.6-0.2,2.3-1.8s-1.1-0.2,1.3-1.1"/>
	<path class="st49" d="M214.1,344.1c0,0,0.3,3.6,0.2,5.7"/>
	<path class="st6" d="M222.5,325.5c-0.9,1.5-2.6,2.6-0.7,2.9c1.9,0.3,5.1,0.2,4.4,1.4c-0.7,1.2-1.6,1.9,0,1.6
		c1.6-0.2,1.5,0.7,2.8,0.9c1.3,0.2,1.8-2.1,1.8-2.1"/>
	<path class="st6" d="M219.9,322.8"/>
	<path class="st49" d="M237,324c-0.7-0.7-1.5-1.1-2.5-1.5c-2.7-1.1-1.6-6.1-6.5-5"/>
	<path class="st49" d="M232.3,339.7c1.6,0.1,1.8,0,2.7-1.7s3.3-1.2,3.5-4.3c0.2-3.1,4.2,3.2,1.8-3.1c-1.4-3.8-2.3-5.5-3.3-6.5"/>
	<path class="st6" d="M221,313.3c-0.3,0.1-0.7-0.2-1.2-0.8c-1.6-2-2-3.1-3.7-1.6c-1.6,1.6-1.8,3.3-3.1,1.6c-1.3-1.7-2,4.6-0.5,6.4
		s2.2,2.3,2.5,2.4"/>
	<path class="st49" d="M237,322.1c0,0,2.5-0.7,2-2.2s-2.6-2-1.6-2.9s3.6-0.7,1.6-2.2s-2.5-1.2-2.6-3.4c-0.1-2.2,0.3-3.4-1.9-3.4
		s-4.1,0.7-5.2-0.7s-2.2-2.3-4-0.4c-1.2,1.3-1.7,2.6-2.4,2.8"/>
	<path class="st6" d="M203.8,318c-2.2,1.5,2.4,2.4,2,4.1s-0.8,2.8,1.5,2.4s4.6-0.7,5.4,0.7c0.8,1.4,1.5,1.6,2.9,0.6"/>
	<path class="st49" d="M216.2,305c0,0-3.3-2.2-6.2-2s-4.6,0.7-5.5,2.1s-1.4,2.4-3.7,3.4c-2,0.9-3.7,0.8-3.2,2.5
		c0.1,0.2,0.2,0.4,0.3,0.7"/>
	<path class="st6" d="M206.1,330.9c-1.2,1.1,0.9,1.8,2.2,1.4c2.7-0.8,1.7,0.7,4.3,0.2s3.4-0.6,3.3-2.5"/>
	<path class="st49" d="M196.5,315.3c0,0,0.2,2.1-1.9,2.7c-2,0.6-2.5,1.5-2,3.8c0.4,2.3,2,3.7,2.5,6.5s-0.9,7,1.9,6.3
		c1.4-0.3,1.9-0.2,2.5-0.1"/>
	<path class="st6" d="M214.1,344.1c2-2.1,8.4-2.5,4.3-5.1c-4.1-2.5-2.4-1.6-2.9-3.9"/>
	<path class="st49" d="M209.2,346.7c4.2-1.3,2.9-0.5,4.9-2.6"/>
	<path class="st49" d="M202.1,336.2c0,0-1.6,0.1-0.1,2.9s3.1,1.7,3.4,4.1c0.1,0.5,0.1,1.1,0.1,1.6"/>
	<path class="st50" d="M213.7,356.2"/>
</g>
<g>
	<path class="st54" d="M97.1,249.4c-0.5,0.7-1.3,1.2-2.2,1.2c-0.4,0-0.7-0.1-1.1-0.2"/>
	<path class="st7" d="M94.9,245.3c1.5,0,2.7,1.2,2.7,2.6c0,0.5-0.2,1-0.4,1.5"/>
	<ellipse class="st7" cx="91.9" cy="249.8" rx="1" ry="1.5"/>
	<path class="st54" d="M93.6,250.4c-0.2,0.7-0.8,1.1-1.4,1.1c-0.3,0-0.5-0.1-0.7-0.2c-0.5-0.3-0.8-1-0.8-1.7c0-0.4,0.1-0.9,0.3-1.2
		c0.1-0.2,0.3-0.4,0.5-0.5c0.2-0.2,0.5-0.2,0.8-0.2"/>
	<path class="st7" d="M92.2,247.7c0.9,0,1.6,0.9,1.6,1.9c0,0.3,0,0.5-0.1,0.8"/>
	<path class="st54" d="M96.7,245.7c0.9,0,1.7,0.9,1.7,1.9c0,0.9-0.5,1.6-1.3,1.8"/>
	<path class="st54" d="M92.3,247.7c0-1.8,1.2-3,2.6-3c0.9,0,1.6,0.6,2,1.4"/>
	<path class="st7" d="M93.2,247.9c0-1.5,0.9-2.8,2.1-2.8c0.7,0,1.2,0.4,1.6,1"/>
</g>
<g>
	<path class="st54" d="M97.2,259.5c-0.5,0.7-1.3,1.2-2.2,1.2c-0.4,0-0.7-0.1-1.1-0.2"/>
	<path class="st7" d="M94.9,255.4c1.5,0,2.7,1.2,2.7,2.6c0,0.5-0.2,1-0.4,1.5"/>
	<ellipse class="st7" cx="92" cy="259.8" rx="1" ry="1.5"/>
	<path class="st54" d="M93.7,260.4c-0.2,0.7-0.8,1.1-1.4,1.1c-0.3,0-0.5-0.1-0.7-0.2c-0.5-0.3-0.8-1-0.8-1.7c0-0.4,0.1-0.9,0.3-1.2
		c0.1-0.2,0.3-0.4,0.5-0.5c0.2-0.2,0.5-0.2,0.8-0.2"/>
	<path class="st7" d="M92.3,257.7c0.9,0,1.6,0.9,1.6,1.9c0,0.3,0,0.5-0.1,0.8"/>
	<path class="st54" d="M96.8,255.7c0.9,0,1.7,0.9,1.7,1.9c0,0.9-0.5,1.6-1.3,1.8"/>
	<path class="st54" d="M92.3,257.7c0-1.8,1.2-3,2.6-3c0.9,0,1.6,0.6,2,1.4"/>
	<path class="st7" d="M93.2,258c0-1.5,0.9-2.8,2.1-2.8c0.7,0,1.2,0.4,1.6,1"/>
</g>
<g>
	<path class="st54" d="M108,243.8c-0.5,0.7-1.3,1.2-2.2,1.2c-0.4,0-0.7-0.1-1.1-0.2"/>
	<path class="st7" d="M105.7,239.7c1.5,0,2.7,1.2,2.7,2.6c0,0.5-0.2,1-0.4,1.5"/>
	<ellipse class="st7" cx="102.8" cy="244.1" rx="1" ry="1.5"/>
	<path class="st54" d="M104.5,244.7c-0.2,0.7-0.8,1.1-1.4,1.1c-0.3,0-0.5-0.1-0.7-0.2c-0.5-0.3-0.8-1-0.8-1.7c0-0.4,0.1-0.9,0.3-1.2
		c0.1-0.2,0.3-0.4,0.5-0.5c0.2-0.2,0.5-0.2,0.8-0.2"/>
	<path class="st7" d="M103.1,242.1c0.9,0,1.6,0.9,1.6,1.9c0,0.3,0,0.5-0.1,0.8"/>
	<path class="st54" d="M107.6,240c0.9,0,1.7,0.9,1.7,1.9c0,0.9-0.5,1.6-1.3,1.8"/>
	<path class="st54" d="M103.1,242c0-1.8,1.2-3,2.6-3c0.9,0,1.6,0.6,2,1.4"/>
	<path class="st7" d="M104,242.3c0-1.5,0.9-2.8,2.1-2.8c0.7,0,1.2,0.4,1.6,1"/>
</g>
<g>
	<path class="st54" d="M108,253.8c-0.5,0.7-1.3,1.2-2.2,1.2c-0.4,0-0.7-0.1-1.1-0.2"/>
	<path class="st7" d="M105.8,249.7c1.5,0,2.7,1.2,2.7,2.6c0,0.5-0.2,1-0.4,1.5"/>
	<ellipse class="st7" cx="102.9" cy="254.2" rx="1" ry="1.5"/>
	<path class="st54" d="M104.6,254.8c-0.2,0.7-0.8,1.1-1.4,1.1c-0.3,0-0.5-0.1-0.7-0.2c-0.5-0.3-0.8-1-0.8-1.7c0-0.4,0.1-0.9,0.3-1.2
		c0.1-0.2,0.3-0.4,0.5-0.5c0.2-0.2,0.5-0.2,0.8-0.2"/>
	<path class="st7" d="M103.1,252.1c0.9,0,1.6,0.9,1.6,1.9c0,0.3,0,0.5-0.1,0.8"/>
	<path class="st54" d="M107.6,250c0.9,0,1.7,0.9,1.7,1.9c0,0.9-0.5,1.6-1.3,1.8"/>
	<path class="st54" d="M103.2,252.1c0-1.8,1.2-3,2.6-3c0.9,0,1.6,0.6,2,1.4"/>
	<path class="st7" d="M104.1,252.3c0-1.5,0.9-2.8,2.1-2.8c0.7,0,1.2,0.4,1.6,1"/>
</g>
<g>
	<path class="st54" d="M117.6,237.5c-0.5,0.7-1.3,1.2-2.2,1.2c-0.4,0-0.7-0.1-1.1-0.2"/>
	<path class="st7" d="M115.4,233.4c1.5,0,2.7,1.2,2.7,2.6c0,0.5-0.2,1-0.4,1.5"/>
	<ellipse class="st7" cx="112.5" cy="237.9" rx="1" ry="1.5"/>
	<path class="st54" d="M114.2,238.5c-0.2,0.7-0.8,1.1-1.4,1.1c-0.3,0-0.5-0.1-0.7-0.2c-0.5-0.3-0.8-1-0.8-1.7c0-0.4,0.1-0.9,0.3-1.2
		c0.1-0.2,0.3-0.4,0.5-0.5c0.2-0.2,0.5-0.2,0.8-0.2"/>
	<path class="st7" d="M112.7,235.8c0.9,0,1.6,0.9,1.6,1.9c0,0.3,0,0.5-0.1,0.8"/>
	<path class="st54" d="M117.2,233.7c0.9,0,1.7,0.9,1.7,1.9c0,0.9-0.5,1.6-1.3,1.8"/>
	<path class="st54" d="M112.8,235.8c0-1.8,1.2-3,2.6-3c0.9,0,1.6,0.6,2,1.4"/>
	<path class="st7" d="M113.7,236c0-1.5,0.9-2.8,2.1-2.8c0.7,0,1.2,0.4,1.6,1"/>
</g>
<g>
	<path class="st54" d="M117.7,247.5c-0.5,0.7-1.3,1.2-2.2,1.2c-0.4,0-0.7-0.1-1.1-0.2"/>
	<path class="st7" d="M115.5,243.4c1.5,0,2.7,1.2,2.7,2.6c0,0.5-0.2,1-0.4,1.5"/>
	<ellipse class="st7" cx="112.5" cy="247.9" rx="1" ry="1.5"/>
	<path class="st54" d="M114.2,248.5c-0.2,0.7-0.8,1.1-1.4,1.1c-0.3,0-0.5-0.1-0.7-0.2c-0.5-0.3-0.8-1-0.8-1.7c0-0.4,0.1-0.9,0.3-1.2
		c0.1-0.2,0.3-0.4,0.5-0.5c0.2-0.2,0.5-0.2,0.8-0.2"/>
	<path class="st7" d="M112.8,245.8c0.9,0,1.6,0.9,1.6,1.9c0,0.3,0,0.5-0.1,0.8"/>
	<path class="st54" d="M117.3,243.8c0.9,0,1.7,0.9,1.7,1.9c0,0.9-0.5,1.6-1.3,1.8"/>
	<path class="st54" d="M112.8,245.8c0-1.8,1.2-3,2.6-3c0.9,0,1.6,0.6,2,1.4"/>
	<path class="st7" d="M113.8,246c0-1.5,0.9-2.8,2.1-2.8c0.7,0,1.2,0.4,1.6,1"/>
</g>
<g>
	<polyline class="st55" points="137.6,225.5 138.8,224.7 138.4,220.9 	"/>
	<line class="st6" x1="137.2" y1="221.7" x2="137.6" y2="225.6"/>
	<path class="st6" d="M138.4,221c-0.1,0-1.2,0.7-1.2,0.7"/>
	<path class="st54" d="M136.2,221.6l0.5,3.8l0.8,0.1"/>
	<line class="st6" x1="137.1" y1="221.7" x2="136.2" y2="221.6"/>
	<line class="st56" x1="138.3" y1="220.8" x2="137.5" y2="220.7"/>
	<line class="st57" x1="136.2" y1="221.5" x2="137.6" y2="220.7"/>
	<polyline class="st6" points="137.6,221.4 138,224.5 137.5,224.8 	"/>
	<line class="st6" x1="137.9" y1="224.5" x2="138.5" y2="224.7"/>
</g>
<g>
	<polyline class="st55" points="132.6,228.4 133.8,227.6 133.4,223.7 	"/>
	<line class="st6" x1="132.2" y1="224.6" x2="132.6" y2="228.5"/>
	<path class="st6" d="M133.4,223.9c-0.1,0-1.2,0.7-1.2,0.7"/>
	<path class="st54" d="M131.2,224.5l0.5,3.8l0.8,0.1"/>
	<line class="st6" x1="132.2" y1="224.6" x2="131.2" y2="224.5"/>
	<line class="st56" x1="133.3" y1="223.7" x2="132.5" y2="223.6"/>
	<line class="st57" x1="131.2" y1="224.4" x2="132.6" y2="223.6"/>
	<polyline class="st6" points="132.6,224.3 133,227.4 132.5,227.6 	"/>
	<line class="st6" x1="132.9" y1="227.4" x2="133.5" y2="227.6"/>
</g>
<g>
	<polyline class="st55" points="127.7,230.9 128.9,230.1 128.5,226.3 	"/>
	<line class="st6" x1="127.3" y1="227.1" x2="127.7" y2="231"/>
	<path class="st6" d="M128.5,226.4c-0.1,0-1.2,0.7-1.2,0.7"/>
	<path class="st54" d="M126.3,227l0.5,3.8l0.8,0.1"/>
	<line class="st6" x1="127.3" y1="227.1" x2="126.3" y2="227"/>
	<line class="st56" x1="128.4" y1="226.2" x2="127.6" y2="226.1"/>
	<line class="st57" x1="126.3" y1="226.9" x2="127.7" y2="226.1"/>
	<polyline class="st6" points="127.7,226.8 128.1,229.9 127.6,230.2 	"/>
	<line class="st6" x1="128" y1="229.9" x2="128.6" y2="230.1"/>
</g>
<g>
	<polyline class="st55" points="122.6,234 123.8,233.2 123.4,229.3 	"/>
	<line class="st6" x1="122.1" y1="230.1" x2="122.6" y2="234"/>
	<path class="st6" d="M123.4,229.4c-0.1,0-1.2,0.7-1.2,0.7"/>
	<path class="st54" d="M121.1,230.1l0.5,3.8l0.8,0.1"/>
	<line class="st6" x1="122.1" y1="230.1" x2="121.2" y2="230"/>
	<line class="st56" x1="123.3" y1="229.3" x2="122.5" y2="229.2"/>
	<line class="st57" x1="121.1" y1="229.9" x2="122.6" y2="229.1"/>
	<polyline class="st6" points="122.6,229.9 123,233 122.5,233.2 	"/>
	<line class="st6" x1="122.9" y1="233" x2="123.4" y2="233.1"/>
</g>
<g>
	<polyline class="st55" points="137.6,236 138.8,235.2 138.4,231.4 	"/>
	<line class="st6" x1="137.1" y1="232.2" x2="137.6" y2="236.1"/>
	<path class="st6" d="M138.4,231.5c-0.1,0-1.2,0.7-1.2,0.7"/>
	<path class="st54" d="M136.1,232.1l0.5,3.8l0.8,0.1"/>
	<line class="st6" x1="137.1" y1="232.2" x2="136.2" y2="232.1"/>
	<line class="st56" x1="138.3" y1="231.3" x2="137.5" y2="231.2"/>
	<line class="st57" x1="136.1" y1="232" x2="137.5" y2="231.2"/>
	<polyline class="st6" points="137.6,231.9 138,235 137.5,235.3 	"/>
	<line class="st6" x1="137.9" y1="235" x2="138.4" y2="235.2"/>
</g>
<g>
	<polyline class="st55" points="132.4,238.9 133.7,238.1 133.2,234.2 	"/>
	<line class="st6" x1="132" y1="235" x2="132.5" y2="238.9"/>
	<path class="st6" d="M133.2,234.3c-0.1,0-1.2,0.7-1.2,0.7"/>
	<path class="st54" d="M131,235l0.5,3.8l0.8,0.1"/>
	<line class="st6" x1="132" y1="235" x2="131" y2="234.9"/>
	<line class="st56" x1="133.1" y1="234.2" x2="132.3" y2="234.1"/>
	<line class="st57" x1="131" y1="234.9" x2="132.4" y2="234.1"/>
	<polyline class="st6" points="132.4,234.8 132.8,237.9 132.4,238.1 	"/>
	<line class="st6" x1="132.8" y1="237.9" x2="133.3" y2="238.1"/>
</g>
<g>
	<polyline class="st55" points="127.7,241.4 128.9,240.6 128.5,236.7 	"/>
	<line class="st6" x1="127.3" y1="237.5" x2="127.7" y2="241.4"/>
	<path class="st6" d="M128.5,236.8c-0.1,0-1.2,0.7-1.2,0.7"/>
	<path class="st54" d="M126.3,237.5l0.5,3.8l0.8,0.1"/>
	<line class="st6" x1="127.3" y1="237.5" x2="126.3" y2="237.4"/>
	<line class="st56" x1="128.4" y1="236.7" x2="127.6" y2="236.6"/>
	<line class="st57" x1="126.3" y1="237.3" x2="127.7" y2="236.5"/>
	<polyline class="st6" points="127.7,237.3 128.1,240.3 127.6,240.6 	"/>
	<line class="st6" x1="128" y1="240.4" x2="128.6" y2="240.5"/>
</g>
<g>
	<polyline class="st55" points="122.7,244.4 123.9,243.6 123.4,239.7 	"/>
	<line class="st6" x1="122.2" y1="240.5" x2="122.7" y2="244.4"/>
	<path class="st6" d="M123.5,239.8c-0.1,0-1.2,0.7-1.2,0.7"/>
	<path class="st54" d="M121.2,240.5l0.5,3.8l0.8,0.1"/>
	<line class="st6" x1="122.2" y1="240.5" x2="121.3" y2="240.4"/>
	<line class="st56" x1="123.4" y1="239.7" x2="122.6" y2="239.6"/>
	<line class="st57" x1="121.2" y1="240.3" x2="122.6" y2="239.5"/>
	<polyline class="st6" points="122.7,240.3 123,243.3 122.6,243.6 	"/>
	<line class="st6" x1="123" y1="243.4" x2="123.5" y2="243.5"/>
</g>
<g>
	<path class="st58" d="M174.1,289.5l-5.8,3.1l0.1-6c0-0.4,0.2-0.7,0.5-0.9l1.3-0.7"/>
	<path class="st54" d="M170.3,285.1l4.5-2.5c0.4-0.2,0.8,0,0.8,0.4l0.1,5c0,0.4-0.2,0.8-0.6,1l-1,0.5"/>
	<path class="st58" d="M160.7,287.7c-0.5,0.3-0.5,1-0.1,1.3l5.5,3.6c0.3,0.2,0.7,0.3,1.1,0.2l1.2-0.2"/>
	<path class="st54" d="M170.1,285.1c-0.1,0-0.9-0.5-1.3-0.7c-0.6-0.3-1.3-0.3-1.8,0l-6.6,3.5"/>
	<path class="st54" d="M160.3,288.1c-0.3,0.6-0.1,1.4,0.3,1.8l5.5,3.6c0.3,0.2,0.7,0.3,1.1,0.2l1.2-0.6"/>
	<line class="st58" x1="167.8" y1="304.4" x2="163.3" y2="291.7"/>
	<path class="st54" d="M163.9,292c0,0.1,4.4,12.2,4.4,12.2l-0.5,0.2"/>
	<polyline class="st54" points="163.1,293.1 166.7,303.9 167.8,304.4 	"/>
	<line class="st58" x1="159.3" y1="300.1" x2="163" y2="292"/>
	<polyline class="st54" points="162.7,291.3 158.5,299.7 159.3,300.1 	"/>
	<path class="st54" d="M163,293.4c0,0.2-3,6.4-3,6.4l-0.7,0.3"/>
	<line class="st58" x1="176.8" y1="299.8" x2="173.5" y2="289.9"/>
	<path class="st54" d="M176.8,299.8c0,0,0.5-0.3,0.7-0.3c0.1,0-3.4-9.9-3.4-9.9"/>
	<polyline class="st54" points="173,290.1 175.9,299.3 176.8,299.8 	"/>
	<polyline class="st54" points="168.6,295.1 167.7,294.8 169.2,292.2 	"/>
	<path class="st58" d="M170.6,291.4c0,0.3-2.1,3.7-2.1,3.7"/>
	<path class="st54" d="M168.6,295.1c0,0,0.8-0.3,0.9-0.4l1.9-3.6"/>
</g>
<g>
	<path class="st58" d="M190.8,279.9L185,283l0.1-6c0-0.4,0.2-0.7,0.5-0.9l1.3-0.7"/>
	<path class="st54" d="M187,275.5l4.5-2.5c0.4-0.2,0.8,0,0.8,0.4l0.1,5c0,0.4-0.2,0.8-0.6,1l-1,0.5"/>
	<path class="st58" d="M177.4,278.1c-0.5,0.3-0.5,1-0.1,1.3l5.5,3.6c0.3,0.2,0.7,0.3,1.1,0.2l1.2-0.2"/>
	<path class="st54" d="M186.8,275.4c-0.1,0-0.9-0.5-1.3-0.7c-0.6-0.3-1.3-0.3-1.8,0l-6.6,3.5"/>
	<path class="st54" d="M177,278.5c-0.3,0.6-0.1,1.4,0.3,1.8l5.5,3.6c0.3,0.2,0.7,0.3,1.1,0.2l1.2-0.6"/>
	<line class="st58" x1="184.5" y1="294.8" x2="180" y2="282.1"/>
	<path class="st54" d="M180.6,282.4c0,0.1,4.4,12.2,4.4,12.2l-0.5,0.2"/>
	<polyline class="st54" points="179.8,283.5 183.4,294.3 184.5,294.8 	"/>
	<line class="st58" x1="176" y1="290.5" x2="179.7" y2="282.4"/>
	<polyline class="st54" points="179.4,281.7 175.2,290 176,290.5 	"/>
	<path class="st54" d="M179.7,283.8c0,0.2-3,6.4-3,6.4l-0.7,0.3"/>
	<line class="st58" x1="193.4" y1="290.2" x2="190.2" y2="280.3"/>
	<path class="st54" d="M193.4,290.2c0,0,0.5-0.3,0.7-0.3c0.1,0-3.4-9.9-3.4-9.9"/>
	<polyline class="st54" points="189.7,280.5 192.6,289.6 193.4,290.2 	"/>
	<polyline class="st54" points="185.2,285.5 184.4,285.2 185.9,282.6 	"/>
	<path class="st58" d="M187.3,281.8c0,0.3-2.1,3.7-2.1,3.7"/>
	<path class="st54" d="M185.2,285.5c0,0,0.8-0.3,0.9-0.4l1.9-3.6"/>
</g>
<g>
	<path class="st58" d="M207.9,271.3l-5.8,3.1l0.1-6c0-0.4,0.2-0.7,0.5-0.9l1.3-0.7"/>
	<path class="st54" d="M204,266.9l4.5-2.5c0.4-0.2,0.8,0,0.8,0.4l0.1,5c0,0.4-0.2,0.8-0.6,1l-1,0.5"/>
	<path class="st58" d="M194.4,269.5c-0.5,0.3-0.5,1-0.1,1.3l5.5,3.6c0.3,0.2,0.7,0.3,1.1,0.2l1.2-0.2"/>
	<path class="st54" d="M203.8,266.8c-0.1,0-0.9-0.5-1.3-0.7c-0.6-0.3-1.3-0.3-1.8,0l-6.6,3.5"/>
	<path class="st54" d="M194,269.9c-0.3,0.6-0.1,1.4,0.3,1.8l5.5,3.6c0.3,0.2,0.7,0.3,1.1,0.2l1.2-0.6"/>
	<line class="st58" x1="201.5" y1="286.2" x2="197" y2="273.5"/>
	<path class="st54" d="M197.7,273.8c0,0.1,4.4,12.2,4.4,12.2l-0.5,0.2"/>
	<polyline class="st54" points="196.8,274.9 200.5,285.7 201.5,286.2 	"/>
	<line class="st58" x1="193.1" y1="281.9" x2="196.8" y2="273.8"/>
	<polyline class="st54" points="196.5,273.1 192.2,281.4 193.1,281.9 	"/>
	<path class="st54" d="M196.8,275.2c0,0.2-3,6.4-3,6.4l-0.7,0.3"/>
	<line class="st58" x1="210.5" y1="281.6" x2="207.3" y2="271.7"/>
	<path class="st54" d="M210.5,281.6c0,0,0.5-0.3,0.7-0.3c0.1,0-3.4-9.9-3.4-9.9"/>
	<polyline class="st54" points="206.8,271.9 209.6,281 210.5,281.6 	"/>
	<polyline class="st54" points="202.3,276.9 201.5,276.6 203,274 	"/>
	<path class="st58" d="M204.4,273.2c0,0.3-2.1,3.7-2.1,3.7"/>
	<path class="st54" d="M202.3,276.9c0,0,0.8-0.3,0.9-0.4l1.9-3.6"/>
</g>
<g>
	<path class="st54" d="M164.3,248l2.3,2.2l8.6-4.5c-0.3-0.1-2.2-1.3-3.3-1.9c-0.5-0.3-0.8-0.7-0.8-1.3c-0.2-1.3-0.5-3.6-0.7-5"/>
	<path class="st59" d="M170.5,237.9c-0.1-0.7-0.7-1.2-1.3-0.9l-4.4,2.4c-0.6,0.3-1,1-1,1.7l-0.1,5.5c0,0.6,0.2,1.2,0.7,1.7"/>
	<path class="st54" d="M170.4,237.4c-0.1-0.7-1.1-1.1-1.7-0.8l-4.4,2.4c-0.6,0.3-1,1-1,1.7l-0.1,5.5c0,0.6,0.2,1.2,0.7,1.7l2.3,2.2"
		/>
</g>
<g>
	<path class="st54" d="M147.2,256.9l2.3,2.2l8.6-4.5c-0.3-0.1-2.2-1.3-3.3-1.9c-0.5-0.3-0.8-0.7-0.8-1.3c-0.2-1.3-0.5-3.6-0.7-5"/>
	<path class="st59" d="M153.4,246.7c-0.1-0.7-0.7-1.2-1.3-0.9l-4.4,2.4c-0.6,0.3-1,1-1,1.7l-0.1,5.5c0,0.6,0.2,1.2,0.7,1.7"/>
	<path class="st54" d="M153.3,246.3c-0.1-0.7-1.1-1.1-1.7-0.8l-4.4,2.4c-0.6,0.3-1,1-1,1.7l-0.1,5.5c0,0.6,0.2,1.2,0.7,1.7l2.3,2.2"
		/>
</g>
<g>
	<path class="st54" d="M130.5,266l2.3,2.2l8.6-4.5c-0.3-0.1-2.2-1.3-3.3-1.9c-0.5-0.3-0.8-0.7-0.8-1.3c-0.2-1.3-0.5-3.6-0.7-5"/>
	<path class="st59" d="M136.7,255.8c-0.1-0.7-0.7-1.2-1.3-0.9l-4.4,2.4c-0.6,0.3-1,1-1,1.7l-0.1,5.5c0,0.6,0.2,1.2,0.7,1.7"/>
	<path class="st54" d="M136.6,255.3c-0.1-0.7-1.1-1.1-1.7-0.8l-4.4,2.4c-0.6,0.3-1,1-1,1.7l-0.1,5.5c0,0.6,0.2,1.2,0.7,1.7l2.3,2.2"
		/>
</g>
<g>
	<path class="st54" d="M285.6,270.6c0,0-1.7-0.1-2.6,0.6c-0.1,0.1-0.4,0.4-0.4,0.6c-0.5,2.9,3,3.8,4.8,3.7c2.6,0,4.4-1.7,4.4-1.7
		L285.6,270.6z"/>
	<path class="st6" d="M283,271.3c0,0-0.8,1.1,0.7,2.1c1,0.7,2.9,1.1,4.2,1.2c1.6,0,3.9-0.6,3.9-0.6"/>
	<polyline class="st6" points="279.7,289.1 279.7,289 284.2,274.8 	"/>
	<polyline class="st54" points="283.5,274.4 278.8,288.6 279.6,289.2 	"/>
	<polyline class="st54" points="279.8,289.3 280.8,288.9 284.9,275.1 	"/>
	<line class="st6" x1="286.5" y1="293.1" x2="286.9" y2="275.5"/>
	<path class="st54" d="M286.2,275.5l-0.6,17.1l0.9,0.5"/>
	<path class="st54" d="M286.7,293.3c0.1,0,0.7-0.5,0.7-0.5l0.2-17.2"/>
	<path class="st6" d="M282.9,285.9"/>
	<polyline class="st54" points="292.6,289.9 293.3,289.4 291.7,274.2 	"/>
	<line class="st6" x1="291" y1="274.5" x2="292.5" y2="289.9"/>
	<polyline class="st54" points="292.4,290.1 291.6,289.7 290.3,274.9 	"/>
	<polyline class="st54" points="287.6,285.8 291.4,283.7 287.6,281.7 	"/>
	<path class="st54" d="M282.7,282.8c0.1,0,3.3-1.4,3.3-1.4"/>
	<path class="st54" d="M281.7,283.2c0,0-0.3-0.2,3.9,2.4"/>
	<path class="st6" d="M285.6,270.7c-0.1,0-1.3,0.4-2.1,1c-0.3,0.2-0.6,0.7-0.6,0.7"/>
</g>
<g>
	<path class="st54" d="M297.9,278.4c0,0-1.7-0.1-2.6,0.6c-0.1,0.1-0.4,0.4-0.4,0.6c-0.5,2.9,3,3.8,4.8,3.7c2.6,0,4.4-1.7,4.4-1.7
		L297.9,278.4z"/>
	<path class="st6" d="M295.3,279c0,0-0.8,1.1,0.7,2.1c1,0.7,2.9,1.1,4.2,1.2c1.6,0,3.9-0.6,3.9-0.6"/>
	<polyline class="st6" points="292,296.8 292,296.8 296.5,282.5 	"/>
	<polyline class="st54" points="295.8,282.2 291.1,296.3 291.9,297 	"/>
	<polyline class="st54" points="292.1,297 293.1,296.6 297.2,282.9 	"/>
	<line class="st6" x1="298.8" y1="300.9" x2="299.2" y2="283.3"/>
	<path class="st54" d="M298.5,283.3l-0.6,17.1l0.9,0.5"/>
	<path class="st54" d="M299,301.1c0.1,0,0.7-0.5,0.7-0.5l0.2-17.2"/>
	<path class="st6" d="M295.2,293.7"/>
	<polyline class="st54" points="304.9,297.7 305.6,297.2 304,282 	"/>
	<line class="st6" x1="303.3" y1="282.2" x2="304.8" y2="297.6"/>
	<polyline class="st54" points="304.7,297.8 303.9,297.4 302.6,282.7 	"/>
	<polyline class="st54" points="300,293.6 303.7,291.4 299.9,289.4 	"/>
	<path class="st54" d="M295,290.6c0.1,0,3.3-1.4,3.3-1.4"/>
	<path class="st54" d="M294,291c0,0-0.3-0.2,3.9,2.4"/>
	<path class="st6" d="M297.9,278.4c-0.1,0-1.3,0.4-2.1,1c-0.3,0.2-0.6,0.7-0.6,0.7"/>
</g>
<g>
	<path class="st54" d="M311.8,287.1c0,0-1.7-0.1-2.6,0.6c-0.1,0.1-0.4,0.4-0.4,0.6c-0.5,2.9,3,3.8,4.8,3.7c2.6,0,4.4-1.7,4.4-1.7
		L311.8,287.1z"/>
	<path class="st6" d="M309.2,287.8c0,0-0.8,1.1,0.7,2.1c1,0.7,2.9,1.1,4.2,1.2c1.6,0,3.9-0.6,3.9-0.6"/>
	<polyline class="st6" points="305.9,305.6 305.9,305.6 310.3,291.3 	"/>
	<polyline class="st54" points="309.6,291 304.9,305.1 305.8,305.7 	"/>
	<polyline class="st54" points="306,305.8 306.9,305.4 311,291.7 	"/>
	<line class="st6" x1="312.7" y1="309.6" x2="313" y2="292.1"/>
	<path class="st54" d="M312.3,292.1l-0.6,17.1l0.9,0.5"/>
	<path class="st54" d="M312.8,309.8c0.1,0,0.7-0.5,0.7-0.5l0.2-17.2"/>
	<path class="st6" d="M309,302.5"/>
	<polyline class="st54" points="318.8,306.5 319.4,305.9 317.8,290.8 	"/>
	<line class="st6" x1="317.2" y1="291" x2="318.6" y2="306.4"/>
	<polyline class="st54" points="318.6,306.6 317.7,306.2 316.5,291.4 	"/>
	<polyline class="st54" points="313.8,302.4 317.5,300.2 313.8,298.2 	"/>
	<path class="st54" d="M308.9,299.3c0.1,0,3.3-1.4,3.3-1.4"/>
	<path class="st54" d="M307.9,299.8c0,0-0.3-0.2,3.9,2.4"/>
	<path class="st6" d="M311.8,287.2c-0.1,0-1.3,0.4-2.1,1c-0.3,0.2-0.6,0.7-0.6,0.7"/>
</g>
<g>
	<path class="st54" d="M324.5,295.2c0,0-1.7-0.1-2.6,0.6c-0.1,0.1-0.4,0.4-0.4,0.6c-0.5,2.9,3,3.8,4.8,3.7c2.6,0,4.4-1.7,4.4-1.7
		L324.5,295.2z"/>
	<path class="st6" d="M321.8,295.8c0,0-0.8,1.1,0.7,2.1c1,0.7,2.9,1.1,4.2,1.2c1.6,0,3.9-0.6,3.9-0.6"/>
	<polyline class="st6" points="318.5,313.6 318.6,313.6 323,299.4 	"/>
	<polyline class="st54" points="322.3,299 317.6,313.2 318.5,313.8 	"/>
	<polyline class="st54" points="318.7,313.8 319.6,313.5 323.7,299.7 	"/>
	<line class="st6" x1="325.5" y1="313.5" x2="325.7" y2="300.1"/>
	<path class="st54" d="M325,300.1l-0.4,12.9"/>
	<path class="st54" d="M326.3,313.2l0-13"/>
	<path class="st6" d="M321.7,310.5"/>
	<line class="st54" x1="331.9" y1="310.1" x2="330.5" y2="298.8"/>
	<line class="st6" x1="329.9" y1="299" x2="331" y2="310.4"/>
	<line class="st54" x1="330.2" y1="310.7" x2="329.2" y2="299.5"/>
	<polyline class="st54" points="326.5,310.4 330.2,308.2 326.5,306.2 	"/>
	<path class="st54" d="M321.6,307.4c0.1,0,3.3-1.4,3.3-1.4"/>
	<path class="st54" d="M320.6,307.8c0,0-0.3-0.2,3.9,2.4"/>
	<path class="st6" d="M324.5,295.2c-0.1,0-1.3,0.4-2.1,1c-0.3,0.2-0.6,0.7-0.6,0.7"/>
</g>
<polyline class="st0" points="305.6,243.7 294.6,249.2 294.8,249.4 364.7,290.6 "/>
<line class="st0" x1="294.3" y1="274" x2="343.2" y2="303.3"/>
<g>
	<path class="st60" d="M250.3,145.9l8.4-4.9c1-0.6,1.1-1.3,1.1-2.4v-2.4c0.1-0.6-0.1-1.1-0.7-1.5l-2.4-1.5c-0.6-0.5-1.7-0.4-2.3,0.1
		L246,138c-1.3,0.7-1.6,1.4-1.6,2.5v1.9c0,1.1,0.2,1.8,1.2,2.3l1.9,1.1C248.6,146.5,250,146,250.3,145.9z"/>
	<path class="st61" d="M257.4,141.8v-5.2l-1.4-1.8l-1.1-0.1l-3.4,1.9l-0.5,1.2l0.6,2v5.2 M256.6,142.3v-5.2l-1.3-1.4l-3.4,1.9
		l0.5,1.9v5.2"/>
	<path class="st61" d="M259.5,135.4l-2.2,1.2 M256.6,137.1l-4,2.3 M251.6,139.9l-2.9,1.7"/>
	<path class="st61" d="M248.9,146v-3.8c0-0.5-0.4-0.8-0.7-1.2l-3.4-1.9"/>
	<line class="st61" x1="246.6" y1="140.2" x2="251.2" y2="137.6"/>
	<line class="st61" x1="255.8" y1="134.8" x2="257.6" y2="133.9"/>
	<line class="st61" x1="244.9" y1="139.2" x2="247.9" y2="140.9"/>
	<polyline class="st61" points="248.2,137 250.1,137.1 253.3,135.2 253.3,133.9 	"/>
</g>
<g>
	<path class="st60" d="M261,152.1l8.4-4.9c1-0.6,1.1-1.3,1.1-2.4v-2.4c0.1-0.6-0.1-1.1-0.7-1.5l-2.4-1.5c-0.6-0.5-1.7-0.4-2.3,0.1
		l-8.4,4.7c-1.3,0.7-1.6,1.4-1.6,2.5v1.9c0,1.1,0.2,1.8,1.2,2.3l1.9,1.1C259.3,152.7,260.6,152.2,261,152.1z"/>
	<path class="st61" d="M268.1,148.1v-5.2l-1.4-1.8l-1.1-0.1l-3.4,1.9l-0.5,1.2l0.6,2v5.2 M267.2,148.5v-5.2l-1.3-1.4l-3.4,1.9
		l0.5,1.9v5.2"/>
	<path class="st61" d="M270.2,141.7l-2.2,1.2 M267.2,143.3l-4,2.3 M262.3,146.2l-2.9,1.7"/>
	<path class="st61" d="M259.6,152.2v-3.8c0-0.5-0.4-0.8-0.7-1.2l-3.4-1.9"/>
	<line class="st61" x1="257.3" y1="146.4" x2="261.8" y2="143.8"/>
	<line class="st61" x1="266.5" y1="141.1" x2="268.3" y2="140.1"/>
	<line class="st61" x1="255.6" y1="145.5" x2="258.6" y2="147.1"/>
	<polyline class="st61" points="258.8,143.2 260.8,143.3 264,141.4 264,140.1 	"/>
</g>
<g>
	<path class="st60" d="M272.4,158.6l8.4-4.9c1-0.6,1.1-1.3,1.1-2.4V149c0.1-0.6-0.1-1.1-0.7-1.5l-2.4-1.5c-0.6-0.5-1.7-0.4-2.3,0.1
		l-8.4,4.7c-1.3,0.7-1.6,1.4-1.6,2.5v1.9c0,1.1,0.2,1.8,1.2,2.3l1.9,1.1C270.8,159.2,272.1,158.7,272.4,158.6z"/>
	<path class="st61" d="M279.5,154.6v-5.2l-1.4-1.8l-1.1-0.1l-3.4,1.9l-0.5,1.2l0.6,2v5.2 M278.7,155.1v-5.2l-1.3-1.4l-3.4,1.9
		l0.5,1.9v5.2"/>
	<path class="st61" d="M281.7,148.2l-2.2,1.2 M278.7,149.8l-4,2.3 M273.8,152.7l-2.9,1.7"/>
	<path class="st61" d="M271,158.7v-3.8c0-0.5-0.4-0.8-0.7-1.2l-3.4-1.9"/>
	<line class="st61" x1="268.7" y1="152.9" x2="273.3" y2="150.3"/>
	<line class="st61" x1="277.9" y1="147.6" x2="279.7" y2="146.6"/>
	<line class="st61" x1="267" y1="152" x2="270" y2="153.6"/>
	<polyline class="st61" points="270.3,149.7 272.2,149.8 275.4,147.9 275.4,146.6 	"/>
</g>
<g>
	<path class="st62" d="M173.9,139.7v0.5c0,0.7,2.7,0.4,3.4,0c0.2-0.1,0.3-0.2,0.6-0.4c0.5-0.4,0.6-0.5,1.3-0.8
		c0.6-0.3,0.8-0.5,0.7-1.3c-0.2-0.9-0.4-1-0.4-2c0.1-1.1-2.3-0.4-2.3,0.1c0,0.6-0.8,2-1.4,2.6c-0.5,0.4-0.8,0.5-1.5,0.8
		C174.1,139.4,173.9,139.5,173.9,139.7z"/>
	<path class="st63" d="M174,139.4c-0.8,0.6,1.8,0.7,2.9,0.2c0.5-0.2,1.2-0.9,2.1-1.3c0.4-0.2,0.6-0.2,0.7-0.6"/>
	<path class="st63" d="M175.7,138.5c0.2-0.1,0.4,0.1,0.7,0.3c0.4,0.2,0.6,0.1,1.2-0.1c0.3-0.1,0.6-0.2,0.8,0.1"/>
	<path class="st63" d="M176.3,138.7c0.3-0.2,1-1.5,1.3-2.3c0.1-0.3,0.2-0.2,0.4-0.2c0.4-0.1,1.2-0.2,1-0.9"/>
	<path class="st63" d="M177.2,136c0.2-0.3,0.3-0.4,0.6-0.3c0.5,0.1,0.5,0.2,0.6,0.5"/>
	<path class="st63" d="M176.1,137.8c0,0.1,0.5,0.3,0.8,0.3"/>
	<path class="st63" d="M176.5,137.2c0,0.1,0.5,0.3,0.8,0.3"/>
	<path class="st63" d="M176.9,136.6c0,0.1,0.5,0.3,0.8,0.3"/>
	<path class="st62" d="M177.2,141.2v0.5c0,0.7,2.3,0.5,2.9,0.2c0.4-0.3,0.6-0.5,0.8-0.6c0.3-0.2,0.8-0.4,1.4-0.7
		c0.6-0.3,0.8-0.5,0.7-1.3c-0.2-0.9-0.4-1-0.4-2c0.1-1.1-2.3-0.4-2.3,0.1c0,0.6-0.8,2-1.4,2.6c-0.5,0.4-0.8,0.5-1.5,0.8
		C177.4,140.9,177.2,141,177.2,141.2z"/>
	<path class="st63" d="M177.5,140.9c-0.8,0.6,1.6,1,2.6,0.3c0.5-0.4,1.4-0.9,2.2-1.3c0.4-0.2,0.8-0.1,0.8-0.7"/>
	<path class="st63" d="M179.1,140c0.2-0.1,0.4,0.1,0.7,0.3c0.4,0.2,0.6-0.2,1.2-0.3c0.3-0.1,0.7,0,0.9,0.2"/>
	<path class="st63" d="M180,140.3c0.3-0.2,1-1.5,1.2-2.2c0-0.3,0.1-0.3,0.4-0.4c0.4-0.1,1-0.2,0.9-0.9"/>
	<path class="st63" d="M180.5,137.6c0.2-0.3,0.4-0.3,0.7-0.2c0.3,0.1,0.3,0.1,0.5,0.3"/>
	<path class="st63" d="M179.6,139.3c0,0.1,0.8,0.4,1,0.4"/>
	<path class="st63" d="M179.9,138.7c0,0.1,0.9,0.4,1.2,0.4"/>
	<path class="st63" d="M180.2,138.1c0,0.1,0.8,0.4,1,0.4"/>
	<path class="st62" d="M182.4,144.3v0.5c0,0.7,2.7,0.4,3.4,0c0.2-0.1,0.3-0.2,0.6-0.4c0.5-0.4,0.6-0.5,1.3-0.8
		c0.6-0.3,0.8-0.5,0.7-1.3c-0.2-0.9-0.4-1-0.4-2c0.1-1.1-2.3-0.4-2.3,0.1c0,0.6-0.8,2-1.4,2.6c-0.5,0.4-0.8,0.5-1.5,0.8
		C182.6,144.1,182.4,144.1,182.4,144.3z"/>
	<path class="st63" d="M182.5,144c-0.8,0.6,1.8,0.7,2.9,0.2c0.5-0.2,1.2-0.9,2.1-1.3c0.4-0.2,0.6-0.2,0.7-0.6"/>
	<path class="st63" d="M184.1,143.1c0.2-0.1,0.4,0.1,0.7,0.3c0.4,0.2,0.6,0.1,1.2-0.1c0.3-0.1,0.6-0.2,0.8,0.1"/>
	<path class="st63" d="M184.8,143.4c0.3-0.2,1-1.5,1.3-2.3c0.1-0.3,0.2-0.2,0.4-0.2c0.4-0.1,1.2-0.2,1-0.9"/>
	<path class="st63" d="M185.7,140.7c0.2-0.3,0.3-0.4,0.6-0.3c0.5,0.1,0.5,0.2,0.6,0.5"/>
	<path class="st63" d="M184.6,142.5c0,0.1,0.5,0.3,0.8,0.3"/>
	<path class="st63" d="M184.9,141.9c0,0.1,0.5,0.3,0.8,0.3"/>
	<path class="st63" d="M185.2,141.3c0,0.1,0.5,0.3,0.8,0.3"/>
	<path class="st62" d="M185.7,145.8v0.5c0,0.7,2.3,0.5,2.9,0.2c0.4-0.3,0.6-0.5,0.8-0.6c0.3-0.2,0.8-0.4,1.4-0.7
		c0.6-0.3,0.8-0.5,0.7-1.3c-0.2-0.9-0.4-1-0.4-2c0.1-1.1-2.3-0.4-2.3,0.1c0,0.6-0.8,2-1.4,2.6c-0.5,0.4-0.8,0.5-1.5,0.8
		C185.9,145.6,185.7,145.6,185.7,145.8z"/>
	<path class="st63" d="M186,145.5c-0.8,0.6,1.6,1,2.6,0.3c0.5-0.4,1.4-0.9,2.2-1.3c0.4-0.2,0.8-0.1,0.8-0.7"/>
	<path class="st63" d="M187.5,144.6c0.2-0.1,0.4,0.1,0.7,0.3c0.4,0.2,0.6-0.2,1.2-0.3c0.3-0.1,0.7,0,0.9,0.2"/>
	<path class="st63" d="M188.5,144.9c0.3-0.2,1-1.5,1.2-2.2c0-0.3,0.1-0.3,0.4-0.4c0.4-0.1,1-0.2,0.9-0.9"/>
	<path class="st63" d="M189,142.2c0.2-0.3,0.4-0.3,0.7-0.2c0.3,0.1,0.3,0.1,0.5,0.3"/>
	<path class="st63" d="M188.1,144c0,0.1,0.8,0.4,1,0.4"/>
	<path class="st63" d="M188.4,143.4c0,0.1,0.9,0.4,1.2,0.4"/>
	<path class="st63" d="M188.7,142.8c0,0.1,0.8,0.4,1,0.4"/>
	<path class="st62" d="M165.5,135.1v0.5c0,0.7,2.7,0.4,3.4,0c0.2-0.1,0.3-0.2,0.6-0.4c0.5-0.4,0.6-0.5,1.3-0.8s0.8-0.5,0.7-1.3
		c-0.2-0.9-0.4-1-0.4-2c0.1-1.1-2.3-0.4-2.3,0.1c0,0.6-0.8,2-1.4,2.6c-0.5,0.4-0.8,0.5-1.5,0.8C165.8,134.8,165.5,134.8,165.5,135.1
		z"/>
	<path class="st63" d="M165.6,134.7c-0.8,0.6,1.8,0.7,2.9,0.2c0.5-0.2,1.2-0.9,2.1-1.3c0.4-0.2,0.6-0.2,0.7-0.6"/>
	<path class="st63" d="M167.3,133.8c0.2-0.1,0.4,0.1,0.7,0.3c0.4,0.2,0.6,0.1,1.2-0.1c0.3-0.1,0.6-0.2,0.8,0.1"/>
	<path class="st63" d="M168,134.1c0.3-0.2,1-1.5,1.3-2.3c0.1-0.3,0.2-0.2,0.4-0.2c0.4-0.1,1.2-0.2,1-0.9"/>
	<path class="st63" d="M168.8,131.4c0.2-0.3,0.3-0.4,0.6-0.3c0.5,0.1,0.5,0.2,0.6,0.5"/>
	<path class="st63" d="M167.7,133.2c0,0.1,0.5,0.3,0.8,0.3"/>
	<path class="st63" d="M168.2,132.6c0,0.1,0.5,0.3,0.8,0.3"/>
	<path class="st63" d="M168.5,132c0,0.1,0.5,0.3,0.8,0.3"/>
	<path class="st62" d="M168.8,136.6v0.5c0,0.7,2.3,0.5,2.9,0.2c0.4-0.3,0.6-0.5,0.8-0.6c0.3-0.2,0.8-0.4,1.4-0.7
		c0.6-0.3,0.8-0.5,0.7-1.3c-0.2-0.9-0.4-1-0.4-2c0.1-1.1-2.3-0.4-2.3,0.1c0,0.6-0.8,2-1.4,2.6c-0.5,0.4-0.8,0.5-1.5,0.8
		C169,136.3,168.8,136.3,168.8,136.6z"/>
	<path class="st63" d="M169.1,136.2c-0.8,0.6,1.6,1,2.6,0.3c0.5-0.4,1.4-0.9,2.2-1.3c0.4-0.2,0.8-0.1,0.8-0.7"/>
	<path class="st63" d="M170.7,135.3c0.2-0.1,0.4,0.1,0.7,0.3c0.4,0.2,0.6-0.2,1.2-0.3c0.3-0.1,0.7,0,0.9,0.2"/>
	<path class="st63" d="M171.6,135.6c0.3-0.2,1-1.5,1.2-2.2c0-0.3,0.1-0.3,0.4-0.4c0.4-0.1,1-0.2,0.9-0.9"/>
	<path class="st63" d="M172.1,132.9c0.2-0.3,0.4-0.3,0.7-0.2c0.3,0.1,0.3,0.1,0.5,0.3"/>
	<path class="st63" d="M171.2,134.7c0,0.1,0.8,0.4,1,0.4"/>
	<path class="st63" d="M171.5,134.1c0,0.1,0.9,0.4,1.2,0.4"/>
	<path class="st63" d="M171.8,133.5c0,0.1,0.8,0.4,1,0.4"/>
	<path class="st62" d="M157.5,130.6v0.5c0,0.7,2.7,0.4,3.4,0c0.2-0.1,0.3-0.2,0.6-0.4c0.5-0.4,0.6-0.5,1.3-0.8
		c0.6-0.3,0.8-0.5,0.7-1.3c-0.2-0.9-0.4-1-0.4-2c0.1-1.1-2.3-0.4-2.3,0.1c0,0.6-0.8,2-1.4,2.6c-0.5,0.4-0.8,0.5-1.5,0.8
		C157.6,130.3,157.5,130.4,157.5,130.6z"/>
	<path class="st63" d="M157.6,130.3c-0.8,0.6,1.8,0.7,2.9,0.2c0.5-0.2,1.2-0.9,2.1-1.3c0.4-0.2,0.6-0.2,0.7-0.6"/>
	<path class="st63" d="M159.2,129.4c0.2-0.1,0.4,0.1,0.7,0.3c0.4,0.2,0.6,0.1,1.2-0.1c0.3-0.1,0.6-0.2,0.8,0.1"/>
	<path class="st63" d="M159.9,129.6c0.3-0.2,1-1.5,1.3-2.3c0.1-0.3,0.2-0.2,0.4-0.2c0.4-0.1,1.2-0.2,1-0.9"/>
	<path class="st63" d="M160.7,126.9c0.2-0.3,0.3-0.4,0.6-0.3c0.5,0.1,0.5,0.2,0.6,0.5"/>
	<path class="st63" d="M159.7,128.7c0,0.1,0.5,0.3,0.8,0.3"/>
	<path class="st63" d="M160,128.2c0,0.1,0.5,0.3,0.8,0.3"/>
	<path class="st63" d="M160.3,127.6c0,0.1,0.5,0.3,0.8,0.3"/>
	<path class="st62" d="M160.7,132.1v0.5c0,0.7,2.3,0.5,2.9,0.2c0.4-0.3,0.6-0.5,0.8-0.6c0.3-0.2,0.8-0.4,1.4-0.7
		c0.6-0.3,0.8-0.5,0.7-1.3c-0.2-0.9-0.4-1-0.4-2c0.1-1.1-2.3-0.4-2.3,0.1c0,0.6-0.8,2-1.4,2.6c-0.5,0.4-0.8,0.5-1.5,0.8
		C160.9,131.8,160.7,131.9,160.7,132.1z"/>
	<path class="st63" d="M160.9,131.8c-0.8,0.6,1.6,1,2.6,0.3c0.5-0.4,1.4-0.9,2.2-1.3c0.4-0.2,0.8-0.1,0.8-0.7"/>
	<path class="st63" d="M162.6,130.9c0.2-0.1,0.4,0.1,0.7,0.3c0.4,0.2,0.6-0.2,1.2-0.3c0.3-0.1,0.7,0,0.9,0.2"/>
	<path class="st63" d="M163.6,131.2c0.3-0.2,1-1.5,1.2-2.2c0-0.3,0.1-0.3,0.4-0.4c0.4-0.1,1-0.2,0.9-0.9"/>
	<path class="st63" d="M164.1,128.5c0.2-0.3,0.4-0.3,0.7-0.2c0.3,0.1,0.3,0.1,0.5,0.3"/>
	<path class="st63" d="M163,130.2c0,0.1,0.8,0.4,1,0.4"/>
	<path class="st63" d="M163.4,129.7c0,0.1,0.9,0.4,1.2,0.4"/>
	<path class="st63" d="M163.8,129.1c0,0.1,0.8,0.4,1,0.4"/>
</g>
<g>
	<path class="st64" d="M315.9,211.4l-24.5-14.1c-0.1-0.1-0.3-0.1-0.4-0.2c-0.1,0-0.2,0-0.4,0c-0.1,0-0.3,0-0.4,0.1
		c-0.1,0-0.2,0.1-0.3,0.1l-0.1,0.1c-0.1,0.1-0.1,0.1-0.2,0.2c-0.1,0.1-0.2,0.2-0.2,0.3c-0.1,0.1-0.1,0.3-0.2,0.4
		c0,0.1-0.1,0.3-0.1,0.5v14.1c0,0.2,0,0.4,0.1,0.5c0,0.2,0.1,0.4,0.2,0.6c0.1,0.2,0.2,0.4,0.4,0.5c0.1,0.1,0.3,0.3,0.4,0.4
		l24.5,14.1c0.1,0.1,0.3,0.1,0.4,0.2c0.1,0,0.2,0,0.4,0c0.1,0,0.3,0,0.4-0.1c0.1,0,0.2-0.1,0.3-0.1l0.1-0.1c0.1-0.1,0.1-0.1,0.2-0.2
		c0.1-0.1,0.2-0.2,0.2-0.3c0.1-0.1,0.1-0.3,0.2-0.4c0-0.1,0.1-0.3,0.1-0.5v-14.1c0-0.2,0-0.4-0.1-0.5c0-0.2-0.1-0.4-0.2-0.6
		c-0.1-0.2-0.2-0.4-0.4-0.5C316.2,211.6,316.1,211.5,315.9,211.4z"/>
	<path class="st65" d="M315.1,212.9L291,199v13.8c0,0.1,0,0.2,0.1,0.3c0,0.1,0.1,0.1,0.1,0.2l24.1,13.9v-13.8c0-0.1,0-0.2-0.1-0.3
		C315.2,212.9,315.1,212.9,315.1,212.9z"/>
	<path class="st66" d="M313.4,212.9L292.8,201v11.8c0,0.1,0,0.2,0.1,0.2c0,0.1,0.1,0.1,0.1,0.1l20.6,11.9v-11.8c0-0.1,0-0.2-0.1-0.2
		C313.4,213,313.4,212.9,313.4,212.9z"/>
</g>
</svg>
